<svg width="25" height="24" viewBox="0 0 25 24" fill="none" xmlns="http://www.w3.org/2000/svg">
<path d="M10.0699 18.82C9.87994 18.82 9.68994 18.75 9.53994 18.6L3.46994 12.53C3.17994 12.24 3.17994 11.76 3.46994 11.47L9.53994 5.4C9.82994 5.11 10.3099 5.11 10.5999 5.4C10.8899 5.69 10.8899 6.17 10.5999 6.46L5.05994 12L10.5999 17.54C10.8899 17.83 10.8899 18.31 10.5999 18.6C10.4599 18.75 10.2599 18.82 10.0699 18.82Z" fill="#848484"/>
<path d="M20.9999 12.75H4.16992C3.75992 12.75 3.41992 12.41 3.41992 12C3.41992 11.59 3.75992 11.25 4.16992 11.25H20.9999C21.4099 11.25 21.7499 11.59 21.7499 12C21.7499 12.41 21.4099 12.75 20.9999 12.75Z" fill="#848484"/>
</svg>
