<svg width="201" height="202" viewBox="0 0 201 202" fill="none" xmlns="http://www.w3.org/2000/svg">
<g clip-path="url(#clip0_103_5515)">
<path d="M201 101.474C201 121.351 195.106 140.781 184.063 157.308C173.02 173.836 157.324 186.717 138.96 194.324C120.596 201.93 100.389 203.92 80.8934 200.043C61.3983 196.165 43.4909 186.593 29.4358 172.538C15.3806 158.483 5.80888 140.575 1.93106 121.08C-1.94675 101.585 0.0434836 81.3779 7.65009 63.014C15.2567 44.65 28.138 28.954 44.6652 17.9109C61.1923 6.86786 80.623 0.973633 100.5 0.973633C127.154 0.973633 152.717 11.562 171.564 30.4094C190.412 49.2568 201 74.8194 201 101.474V101.474Z" fill="#F7931A"/>
<path fill-rule="evenodd" clip-rule="evenodd" d="M71.4281 46.8654L94.5248 53.0508L99.6868 33.8096L111.235 36.9433L106.274 55.3897L115.694 57.9204L120.664 39.2731L132.413 42.416L127.352 61.1638C127.352 61.1638 146.538 65.4123 151.051 81.0172C155.565 96.6221 141.129 104.817 136.671 105.128C136.671 105.128 153.482 114.347 147.708 132.482C141.933 150.618 124.209 153.861 105.562 149.704L100.5 169.147L88.7506 166.004L93.9127 146.863L84.5936 144.323L79.4315 163.601L67.7735 160.467L72.9447 141.281L49.2358 134.885L55.211 121.619C55.211 121.619 61.8988 123.446 64.4296 124.049C66.9604 124.652 68.5867 122.021 69.2993 119.39C70.0119 116.759 80.7472 73.1508 81.7613 69.5602C82.7754 65.9696 82.3643 63.1647 78.1067 62.0592C73.8492 60.9537 68.0567 59.2269 68.0567 59.2269L71.4281 46.8654ZM94.7258 104.616L88.3303 130.043C88.3303 130.043 120.043 141.491 124.099 125.383C128.156 109.276 94.7258 104.616 94.7258 104.616ZM97.6677 92.5564L103.944 69.2587C103.944 69.2587 131.098 74.1192 127.754 87.0837C124.41 100.048 108.403 95.078 97.6677 92.5564Z" fill="white"/>
</g>
<defs>
<clipPath id="clip0_103_5515">
<rect width="201" height="201" fill="white" transform="translate(0 0.973633)"/>
</clipPath>
</defs>
</svg>
