<svg width="20" height="20" viewBox="0 0 20 20" fill="none" xmlns="http://www.w3.org/2000/svg">
<circle cx="10" cy="10" r="10" fill="#FFC246"/>
<path d="M12.0239 9.8279C12.2599 9.5519 12.3999 9.1919 12.3999 8.7999C12.3999 8.0559 11.8919 7.4279 11.1999 7.2519V6.3999H10.3999V7.1999H9.59985V6.3999H8.79985V7.1999H7.59985V7.9999H8.39985V11.9999H7.59985V12.7999H8.79985V13.5999H9.59985V12.7999H10.3999V13.5999H11.1999V12.7999C12.0839 12.7999 12.7999 12.0839 12.7999 11.1999C12.7999 10.6199 12.4879 10.1079 12.0239 9.8279ZM9.19985 7.9999H10.7999C11.2399 7.9999 11.5999 8.3599 11.5999 8.7999C11.5999 9.2399 11.2399 9.5999 10.7999 9.5999H9.19985V7.9999ZM11.1999 11.9999H9.19985V10.3999H11.1999C11.6399 10.3999 11.9999 10.7599 11.9999 11.1999C11.9999 11.6399 11.6399 11.9999 11.1999 11.9999Z" fill="white"/>
</svg>
