<svg width="200" height="200" viewBox="0 0 200 200" fill="none" xmlns="http://www.w3.org/2000/svg">
<mask id="mask0_95_6796" style="mask-type:luminance" maskUnits="userSpaceOnUse" x="0" y="0" width="200" height="200">
<path d="M200 0H0V200H200V0Z" fill="white"/>
</mask>
<g mask="url(#mask0_95_6796)">
<mask id="mask1_95_6796" style="mask-type:luminance" maskUnits="userSpaceOnUse" x="0" y="25" width="200" height="150">
<path d="M0 25.5555H200V174.444H0V25.5555Z" fill="white"/>
</mask>
<g mask="url(#mask1_95_6796)">
<path d="M159.167 72.9191C159.627 72.9191 160 73.2925 160 73.7525C160 74.2124 159.627 74.5858 159.167 74.5858C158.707 74.5858 158.333 74.2124 158.333 73.7525C158.333 73.2925 158.707 72.9191 159.167 72.9191Z" fill="#A1ACB6"/>
<path d="M159.167 80.6969C159.627 80.6969 160 81.0703 160 81.5302C160 81.9901 159.627 82.3636 159.167 82.3636C158.707 82.3636 158.333 81.9901 158.333 81.5302C158.333 81.0703 158.707 80.6969 159.167 80.6969Z" fill="#A1ACB6"/>
<path d="M159.167 88.4747C159.627 88.4747 160 88.8481 160 89.308C160 89.7679 159.627 90.1413 159.167 90.1413C158.707 90.1413 158.333 89.7679 158.333 89.308C158.333 88.8481 158.707 88.4747 159.167 88.4747Z" fill="#A1ACB6"/>
<path d="M159.167 96.2524C159.627 96.2524 160 96.6259 160 97.0858C160 97.5457 159.627 97.9191 159.167 97.9191C158.707 97.9191 158.333 97.5457 158.333 97.0858C158.333 96.6259 158.707 96.2524 159.167 96.2524Z" fill="#A1ACB6"/>
<path d="M159.167 104.03C159.627 104.03 160 104.404 160 104.864C160 105.323 159.627 105.697 159.167 105.697C158.707 105.697 158.333 105.323 158.333 104.864C158.333 104.404 158.707 104.03 159.167 104.03Z" fill="#A1ACB6"/>
<path d="M159.167 111.808C159.627 111.808 160 112.181 160 112.641C160 113.101 159.627 113.475 159.167 113.475C158.707 113.475 158.333 113.101 158.333 112.641C158.333 112.181 158.707 111.808 159.167 111.808Z" fill="#A1ACB6"/>
<path d="M159.167 119.586C159.627 119.586 160 119.959 160 120.419C160 120.879 159.627 121.252 159.167 121.252C158.707 121.252 158.333 120.879 158.333 120.419C158.333 119.959 158.707 119.586 159.167 119.586Z" fill="#A1ACB6"/>
<path d="M159.167 127.364C159.627 127.364 160 127.737 160 128.197C160 128.657 159.627 129.03 159.167 129.03C158.707 129.03 158.333 128.657 158.333 128.197C158.333 127.737 158.707 127.364 159.167 127.364Z" fill="#A1ACB6"/>
</g>
<mask id="mask2_95_6796" style="mask-type:luminance" maskUnits="userSpaceOnUse" x="0" y="25" width="200" height="150">
<path d="M0 25.5555H200V174.444H0V25.5555Z" fill="white"/>
</mask>
<g mask="url(#mask2_95_6796)">
<path d="M41.1111 72.9191C41.571 72.9191 41.9444 73.2925 41.9444 73.7525C41.9444 74.2124 41.571 74.5858 41.1111 74.5858C40.6512 74.5858 40.2778 74.2124 40.2778 73.7525C40.2778 73.2925 40.6512 72.9191 41.1111 72.9191Z" fill="#A1ACB6"/>
<path d="M41.1111 80.6969C41.571 80.6969 41.9444 81.0703 41.9444 81.5302C41.9444 81.9901 41.571 82.3636 41.1111 82.3636C40.6512 82.3636 40.2778 81.9901 40.2778 81.5302C40.2778 81.0703 40.6512 80.6969 41.1111 80.6969Z" fill="#A1ACB6"/>
<path d="M41.1111 88.4747C41.571 88.4747 41.9444 88.8481 41.9444 89.308C41.9444 89.7679 41.571 90.1413 41.1111 90.1413C40.6512 90.1413 40.2778 89.7679 40.2778 89.308C40.2778 88.8481 40.6512 88.4747 41.1111 88.4747Z" fill="#A1ACB6"/>
<path d="M41.1111 96.2524C41.571 96.2524 41.9444 96.6259 41.9444 97.0858C41.9444 97.5457 41.571 97.9191 41.1111 97.9191C40.6512 97.9191 40.2778 97.5457 40.2778 97.0858C40.2778 96.6259 40.6512 96.2524 41.1111 96.2524Z" fill="#A1ACB6"/>
<path d="M41.1111 104.03C41.571 104.03 41.9444 104.404 41.9444 104.864C41.9444 105.323 41.571 105.697 41.1111 105.697C40.6512 105.697 40.2778 105.323 40.2778 104.864C40.2778 104.404 40.6512 104.03 41.1111 104.03Z" fill="#A1ACB6"/>
<path d="M41.1111 111.808C41.571 111.808 41.9444 112.181 41.9444 112.641C41.9444 113.101 41.571 113.475 41.1111 113.475C40.6512 113.475 40.2778 113.101 40.2778 112.641C40.2778 112.181 40.6512 111.808 41.1111 111.808Z" fill="#A1ACB6"/>
<path d="M41.1111 119.586C41.571 119.586 41.9444 119.959 41.9444 120.419C41.9444 120.879 41.571 121.252 41.1111 121.252C40.6512 121.252 40.2778 120.879 40.2778 120.419C40.2778 119.959 40.6512 119.586 41.1111 119.586Z" fill="#A1ACB6"/>
<path d="M41.1111 127.364C41.571 127.364 41.9444 127.737 41.9444 128.197C41.9444 128.657 41.571 129.03 41.1111 129.03C40.6512 129.03 40.2778 128.657 40.2778 128.197C40.2778 127.737 40.6512 127.364 41.1111 127.364Z" fill="#A1ACB6"/>
</g>
<mask id="mask3_95_6796" style="mask-type:luminance" maskUnits="userSpaceOnUse" x="0" y="25" width="200" height="150">
<path d="M0 25.5555H200V174.444H0V25.5555Z" fill="white"/>
</mask>
<g mask="url(#mask3_95_6796)">
<path d="M170.278 72.9191C170.738 72.9191 171.111 73.2925 171.111 73.7525C171.111 74.2124 170.738 74.5858 170.278 74.5858C169.818 74.5858 169.444 74.2124 169.444 73.7525C169.444 73.2925 169.818 72.9191 170.278 72.9191Z" fill="#A1ACB6"/>
<path d="M170.278 80.6969C170.738 80.6969 171.111 81.0703 171.111 81.5302C171.111 81.9901 170.738 82.3636 170.278 82.3636C169.818 82.3636 169.444 81.9901 169.444 81.5302C169.444 81.0703 169.818 80.6969 170.278 80.6969Z" fill="#A1ACB6"/>
<path d="M170.278 88.4747C170.738 88.4747 171.111 88.8481 171.111 89.308C171.111 89.7679 170.738 90.1413 170.278 90.1413C169.818 90.1413 169.444 89.7679 169.444 89.308C169.444 88.8481 169.818 88.4747 170.278 88.4747Z" fill="#A1ACB6"/>
<path d="M170.278 96.2524C170.738 96.2524 171.111 96.6259 171.111 97.0858C171.111 97.5457 170.738 97.9191 170.278 97.9191C169.818 97.9191 169.444 97.5457 169.444 97.0858C169.444 96.6259 169.818 96.2524 170.278 96.2524Z" fill="#A1ACB6"/>
<path d="M170.278 104.03C170.738 104.03 171.111 104.404 171.111 104.864C171.111 105.323 170.738 105.697 170.278 105.697C169.818 105.697 169.444 105.323 169.444 104.864C169.444 104.404 169.818 104.03 170.278 104.03Z" fill="#A1ACB6"/>
<path d="M170.278 111.808C170.738 111.808 171.111 112.181 171.111 112.641C171.111 113.101 170.738 113.475 170.278 113.475C169.818 113.475 169.444 113.101 169.444 112.641C169.444 112.181 169.818 111.808 170.278 111.808Z" fill="#A1ACB6"/>
<path d="M170.278 119.586C170.738 119.586 171.111 119.959 171.111 120.419C171.111 120.879 170.738 121.252 170.278 121.252C169.818 121.252 169.444 120.879 169.444 120.419C169.444 119.959 169.818 119.586 170.278 119.586Z" fill="#A1ACB6"/>
<path d="M170.278 127.364C170.738 127.364 171.111 127.737 171.111 128.197C171.111 128.657 170.738 129.03 170.278 129.03C169.818 129.03 169.444 128.657 169.444 128.197C169.444 127.737 169.818 127.364 170.278 127.364Z" fill="#A1ACB6"/>
</g>
<mask id="mask4_95_6796" style="mask-type:luminance" maskUnits="userSpaceOnUse" x="0" y="25" width="200" height="150">
<path d="M0 25.5555H200V174.444H0V25.5555Z" fill="white"/>
</mask>
<g mask="url(#mask4_95_6796)">
<path d="M30 72.9191C30.4599 72.9191 30.8333 73.2925 30.8333 73.7525C30.8333 74.2124 30.4599 74.5858 30 74.5858C29.5401 74.5858 29.1667 74.2124 29.1667 73.7525C29.1667 73.2925 29.5401 72.9191 30 72.9191Z" fill="#A1ACB6"/>
<path d="M30 80.6969C30.4599 80.6969 30.8333 81.0703 30.8333 81.5302C30.8333 81.9901 30.4599 82.3636 30 82.3636C29.5401 82.3636 29.1667 81.9901 29.1667 81.5302C29.1667 81.0703 29.5401 80.6969 30 80.6969Z" fill="#A1ACB6"/>
<path d="M30 88.4747C30.4599 88.4747 30.8333 88.8481 30.8333 89.308C30.8333 89.7679 30.4599 90.1413 30 90.1413C29.5401 90.1413 29.1667 89.7679 29.1667 89.308C29.1667 88.8481 29.5401 88.4747 30 88.4747Z" fill="#A1ACB6"/>
<path d="M30 96.2524C30.4599 96.2524 30.8333 96.6259 30.8333 97.0858C30.8333 97.5457 30.4599 97.9191 30 97.9191C29.5401 97.9191 29.1667 97.5457 29.1667 97.0858C29.1667 96.6259 29.5401 96.2524 30 96.2524Z" fill="#A1ACB6"/>
<path d="M30 104.03C30.4599 104.03 30.8333 104.404 30.8333 104.864C30.8333 105.323 30.4599 105.697 30 105.697C29.5401 105.697 29.1667 105.323 29.1667 104.864C29.1667 104.404 29.5401 104.03 30 104.03Z" fill="#A1ACB6"/>
<path d="M30 111.808C30.4599 111.808 30.8333 112.181 30.8333 112.641C30.8333 113.101 30.4599 113.475 30 113.475C29.5401 113.475 29.1667 113.101 29.1667 112.641C29.1667 112.181 29.5401 111.808 30 111.808Z" fill="#A1ACB6"/>
<path d="M30 119.586C30.4599 119.586 30.8333 119.959 30.8333 120.419C30.8333 120.879 30.4599 121.252 30 121.252C29.5401 121.252 29.1667 120.879 29.1667 120.419C29.1667 119.959 29.5401 119.586 30 119.586Z" fill="#A1ACB6"/>
<path d="M30 127.364C30.4599 127.364 30.8333 127.737 30.8333 128.197C30.8333 128.657 30.4599 129.03 30 129.03C29.5401 129.03 29.1667 128.657 29.1667 128.197C29.1667 127.737 29.5401 127.364 30 127.364Z" fill="#A1ACB6"/>
</g>
<mask id="mask5_95_6796" style="mask-type:luminance" maskUnits="userSpaceOnUse" x="0" y="25" width="200" height="150">
<path d="M0 25.5555H200V174.444H0V25.5555Z" fill="white"/>
</mask>
<g mask="url(#mask5_95_6796)">
<path d="M181.389 72.9191C181.849 72.9191 182.222 73.2925 182.222 73.7525C182.222 74.2124 181.849 74.5858 181.389 74.5858C180.929 74.5858 180.556 74.2124 180.556 73.7525C180.556 73.2925 180.929 72.9191 181.389 72.9191Z" fill="#A1ACB6"/>
<path d="M181.389 80.6969C181.849 80.6969 182.222 81.0703 182.222 81.5302C182.222 81.9901 181.849 82.3636 181.389 82.3636C180.929 82.3636 180.556 81.9901 180.556 81.5302C180.556 81.0703 180.929 80.6969 181.389 80.6969Z" fill="#A1ACB6"/>
<path d="M181.389 88.4747C181.849 88.4747 182.222 88.8481 182.222 89.308C182.222 89.7679 181.849 90.1413 181.389 90.1413C180.929 90.1413 180.556 89.7679 180.556 89.308C180.556 88.8481 180.929 88.4747 181.389 88.4747Z" fill="#A1ACB6"/>
<path d="M181.389 96.2524C181.849 96.2524 182.222 96.6259 182.222 97.0858C182.222 97.5457 181.849 97.9191 181.389 97.9191C180.929 97.9191 180.556 97.5457 180.556 97.0858C180.556 96.6259 180.929 96.2524 181.389 96.2524Z" fill="#A1ACB6"/>
<path d="M181.389 104.03C181.849 104.03 182.222 104.404 182.222 104.864C182.222 105.323 181.849 105.697 181.389 105.697C180.929 105.697 180.556 105.323 180.556 104.864C180.556 104.404 180.929 104.03 181.389 104.03Z" fill="#A1ACB6"/>
<path d="M181.389 111.808C181.849 111.808 182.222 112.181 182.222 112.641C182.222 113.101 181.849 113.475 181.389 113.475C180.929 113.475 180.556 113.101 180.556 112.641C180.556 112.181 180.929 111.808 181.389 111.808Z" fill="#A1ACB6"/>
<path d="M181.389 119.586C181.849 119.586 182.222 119.959 182.222 120.419C182.222 120.879 181.849 121.252 181.389 121.252C180.929 121.252 180.556 120.879 180.556 120.419C180.556 119.959 180.929 119.586 181.389 119.586Z" fill="#A1ACB6"/>
<path d="M181.389 127.364C181.849 127.364 182.222 127.737 182.222 128.197C182.222 128.657 181.849 129.03 181.389 129.03C180.929 129.03 180.556 128.657 180.556 128.197C180.556 127.737 180.929 127.364 181.389 127.364Z" fill="#A1ACB6"/>
</g>
<mask id="mask6_95_6796" style="mask-type:luminance" maskUnits="userSpaceOnUse" x="0" y="25" width="200" height="150">
<path d="M0 25.5555H200V174.444H0V25.5555Z" fill="white"/>
</mask>
<g mask="url(#mask6_95_6796)">
<path d="M18.8889 72.9191C19.3488 72.9191 19.7222 73.2925 19.7222 73.7525C19.7222 74.2124 19.3488 74.5858 18.8889 74.5858C18.429 74.5858 18.0556 74.2124 18.0556 73.7525C18.0556 73.2925 18.429 72.9191 18.8889 72.9191Z" fill="#A1ACB6"/>
<path d="M18.8889 80.6969C19.3488 80.6969 19.7222 81.0703 19.7222 81.5302C19.7222 81.9901 19.3488 82.3636 18.8889 82.3636C18.429 82.3636 18.0556 81.9901 18.0556 81.5302C18.0556 81.0703 18.429 80.6969 18.8889 80.6969Z" fill="#A1ACB6"/>
<path d="M18.8889 88.4747C19.3488 88.4747 19.7222 88.8481 19.7222 89.308C19.7222 89.7679 19.3488 90.1413 18.8889 90.1413C18.429 90.1413 18.0556 89.7679 18.0556 89.308C18.0556 88.8481 18.429 88.4747 18.8889 88.4747Z" fill="#A1ACB6"/>
<path d="M18.8889 96.2524C19.3488 96.2524 19.7222 96.6259 19.7222 97.0858C19.7222 97.5457 19.3488 97.9191 18.8889 97.9191C18.429 97.9191 18.0556 97.5457 18.0556 97.0858C18.0556 96.6259 18.429 96.2524 18.8889 96.2524Z" fill="#A1ACB6"/>
<path d="M18.8889 104.03C19.3488 104.03 19.7222 104.404 19.7222 104.864C19.7222 105.323 19.3488 105.697 18.8889 105.697C18.429 105.697 18.0556 105.323 18.0556 104.864C18.0556 104.404 18.429 104.03 18.8889 104.03Z" fill="#A1ACB6"/>
<path d="M18.8889 111.808C19.3488 111.808 19.7222 112.181 19.7222 112.641C19.7222 113.101 19.3488 113.475 18.8889 113.475C18.429 113.475 18.0556 113.101 18.0556 112.641C18.0556 112.181 18.429 111.808 18.8889 111.808Z" fill="#A1ACB6"/>
<path d="M18.8889 119.586C19.3488 119.586 19.7222 119.959 19.7222 120.419C19.7222 120.879 19.3488 121.252 18.8889 121.252C18.429 121.252 18.0556 120.879 18.0556 120.419C18.0556 119.959 18.429 119.586 18.8889 119.586Z" fill="#A1ACB6"/>
<path d="M18.8889 127.364C19.3488 127.364 19.7222 127.737 19.7222 128.197C19.7222 128.657 19.3488 129.03 18.8889 129.03C18.429 129.03 18.0556 128.657 18.0556 128.197C18.0556 127.737 18.429 127.364 18.8889 127.364Z" fill="#A1ACB6"/>
</g>
<mask id="mask7_95_6796" style="mask-type:luminance" maskUnits="userSpaceOnUse" x="0" y="25" width="200" height="150">
<path d="M0 25.5555H200V174.444H0V25.5555Z" fill="white"/>
</mask>
<g mask="url(#mask7_95_6796)">
<path d="M192.5 72.9191C192.96 72.9191 193.333 73.2925 193.333 73.7525C193.333 74.2124 192.96 74.5858 192.5 74.5858C192.04 74.5858 191.667 74.2124 191.667 73.7525C191.667 73.2925 192.04 72.9191 192.5 72.9191Z" fill="#A1ACB6"/>
<path d="M192.5 80.6969C192.96 80.6969 193.333 81.0703 193.333 81.5302C193.333 81.9901 192.96 82.3636 192.5 82.3636C192.04 82.3636 191.667 81.9901 191.667 81.5302C191.667 81.0703 192.04 80.6969 192.5 80.6969Z" fill="#A1ACB6"/>
<path d="M192.5 88.4747C192.96 88.4747 193.333 88.8481 193.333 89.308C193.333 89.7679 192.96 90.1413 192.5 90.1413C192.04 90.1413 191.667 89.7679 191.667 89.308C191.667 88.8481 192.04 88.4747 192.5 88.4747Z" fill="#A1ACB6"/>
<path d="M192.5 96.2524C192.96 96.2524 193.333 96.6259 193.333 97.0858C193.333 97.5457 192.96 97.9191 192.5 97.9191C192.04 97.9191 191.667 97.5457 191.667 97.0858C191.667 96.6259 192.04 96.2524 192.5 96.2524Z" fill="#A1ACB6"/>
<path d="M192.5 104.03C192.96 104.03 193.333 104.404 193.333 104.864C193.333 105.323 192.96 105.697 192.5 105.697C192.04 105.697 191.667 105.323 191.667 104.864C191.667 104.404 192.04 104.03 192.5 104.03Z" fill="#A1ACB6"/>
<path d="M192.5 111.808C192.96 111.808 193.333 112.181 193.333 112.641C193.333 113.101 192.96 113.475 192.5 113.475C192.04 113.475 191.667 113.101 191.667 112.641C191.667 112.181 192.04 111.808 192.5 111.808Z" fill="#A1ACB6"/>
<path d="M192.5 119.586C192.96 119.586 193.333 119.959 193.333 120.419C193.333 120.879 192.96 121.252 192.5 121.252C192.04 121.252 191.667 120.879 191.667 120.419C191.667 119.959 192.04 119.586 192.5 119.586Z" fill="#A1ACB6"/>
<path d="M192.5 127.364C192.96 127.364 193.333 127.737 193.333 128.197C193.333 128.657 192.96 129.03 192.5 129.03C192.04 129.03 191.667 128.657 191.667 128.197C191.667 127.737 192.04 127.364 192.5 127.364Z" fill="#A1ACB6"/>
</g>
<mask id="mask8_95_6796" style="mask-type:luminance" maskUnits="userSpaceOnUse" x="0" y="25" width="200" height="150">
<path d="M0 25.5555H200V174.444H0V25.5555Z" fill="white"/>
</mask>
<g mask="url(#mask8_95_6796)">
<path d="M7.77778 72.9191C8.23769 72.9191 8.61111 73.2925 8.61111 73.7525C8.61111 74.2124 8.23769 74.5858 7.77778 74.5858C7.31786 74.5858 6.94444 74.2124 6.94444 73.7525C6.94444 73.2925 7.31786 72.9191 7.77778 72.9191Z" fill="#A1ACB6"/>
<path d="M7.77778 80.6969C8.23769 80.6969 8.61111 81.0703 8.61111 81.5302C8.61111 81.9901 8.23769 82.3636 7.77778 82.3636C7.31786 82.3636 6.94444 81.9901 6.94444 81.5302C6.94444 81.0703 7.31786 80.6969 7.77778 80.6969Z" fill="#A1ACB6"/>
<path d="M7.77778 88.4747C8.23769 88.4747 8.61111 88.8481 8.61111 89.308C8.61111 89.7679 8.23769 90.1413 7.77778 90.1413C7.31786 90.1413 6.94444 89.7679 6.94444 89.308C6.94444 88.8481 7.31786 88.4747 7.77778 88.4747Z" fill="#A1ACB6"/>
<path d="M7.77778 96.2524C8.23769 96.2524 8.61111 96.6259 8.61111 97.0858C8.61111 97.5457 8.23769 97.9191 7.77778 97.9191C7.31786 97.9191 6.94444 97.5457 6.94444 97.0858C6.94444 96.6259 7.31786 96.2524 7.77778 96.2524Z" fill="#A1ACB6"/>
<path d="M7.77778 104.03C8.23769 104.03 8.61111 104.404 8.61111 104.864C8.61111 105.323 8.23769 105.697 7.77778 105.697C7.31786 105.697 6.94444 105.323 6.94444 104.864C6.94444 104.404 7.31786 104.03 7.77778 104.03Z" fill="#A1ACB6"/>
<path d="M7.77778 111.808C8.23769 111.808 8.61111 112.181 8.61111 112.641C8.61111 113.101 8.23769 113.475 7.77778 113.475C7.31786 113.475 6.94444 113.101 6.94444 112.641C6.94444 112.181 7.31786 111.808 7.77778 111.808Z" fill="#A1ACB6"/>
<path d="M7.77778 119.586C8.23769 119.586 8.61111 119.959 8.61111 120.419C8.61111 120.879 8.23769 121.252 7.77778 121.252C7.31786 121.252 6.94444 120.879 6.94444 120.419C6.94444 119.959 7.31786 119.586 7.77778 119.586Z" fill="#A1ACB6"/>
<path d="M7.77778 127.364C8.23769 127.364 8.61111 127.737 8.61111 128.197C8.61111 128.657 8.23769 129.03 7.77778 129.03C7.31786 129.03 6.94444 128.657 6.94444 128.197C6.94444 127.737 7.31786 127.364 7.77778 127.364Z" fill="#A1ACB6"/>
</g>
<mask id="mask9_95_6796" style="mask-type:luminance" maskUnits="userSpaceOnUse" x="-1" y="25" width="202" height="150">
<path d="M-0.135818 25.4545H200.136V174.546H-0.135818V25.4545Z" fill="white"/>
</mask>
<g mask="url(#mask9_95_6796)">
<path d="M138.413 67.9406L136.087 134.657C136.012 136.805 134.207 138.488 132.059 138.413L65.3428 136.087C63.1949 136.012 61.5118 134.207 61.5867 132.06L63.913 65.3429C63.9879 63.195 65.7926 61.5119 67.9405 61.5868L134.657 63.9131C136.805 63.9879 138.488 65.7927 138.413 67.9406Z" fill="#0C1A7B"/>
<path d="M123.024 94.2416C126.202 106.949 118.465 119.846 105.758 123.024C93.0515 126.202 80.154 118.466 76.9759 105.759C73.7978 93.0515 81.5345 80.1541 94.2415 76.976C106.949 73.7978 119.846 81.5346 123.024 94.2416Z" fill="#0C1A7B"/>
<mask id="mask10_95_6796" style="mask-type:luminance" maskUnits="userSpaceOnUse" x="86" y="86" width="29" height="29">
<path d="M87.4913 86.8173L114.166 88.051L112.932 114.725L86.2577 113.492L87.4913 86.8173Z" fill="white"/>
</mask>
<g mask="url(#mask10_95_6796)">
<path d="M94.7745 90.6106C95.3402 89.8064 96.4513 89.6133 97.2549 90.1796C97.7273 90.5122 98.4812 91.3584 99.0083 92.2922C99.2672 92.7509 99.436 93.1702 99.502 93.5018C99.5346 93.6643 99.5365 93.7797 99.5275 93.8539C99.5231 93.8893 99.517 93.9119 99.5125 93.9245C99.5081 93.936 99.5051 93.9414 99.5051 93.9414C99.5051 93.9414 99.501 93.9462 99.4917 93.9541C99.4813 93.9626 99.4623 93.9762 99.4303 93.9919C99.3637 94.0251 99.2539 94.0623 99.0902 94.0865C98.7559 94.1362 98.3045 94.1186 97.7852 94.0295C96.7282 93.848 95.6775 93.4235 95.205 93.0909C94.4009 92.5247 94.2083 91.4148 94.7745 90.6106ZM88.6861 109.149L89.0614 101.036L99.1754 101.503L98.6973 111.84L100.698 111.932L101.176 101.596L111.29 102.064L110.915 110.177C110.858 111.405 109.817 112.354 108.589 112.297L90.8062 111.475C89.5786 111.418 88.6293 110.377 88.6861 109.149ZM108.301 90.1586C107.261 88.3468 104.949 87.7208 103.137 88.7608C102.347 89.2144 101.374 90.1523 100.657 91.1433C100.034 90.0903 99.1525 89.0666 98.4076 88.5421C96.6995 87.3393 94.3394 87.7492 93.1365 89.4573C91.9337 91.1653 92.3441 93.5255 94.0522 94.7284C94.1499 94.7969 94.2564 94.8654 94.3702 94.9324L89.3544 94.7005C88.7403 94.6721 88.2199 95.1464 88.1915 95.7605L88.0939 97.8722C88.0655 98.4846 88.5383 99.0043 89.15 99.0349L99.2679 99.5028L99.4684 95.1682L101.469 95.2607L101.268 99.5953L111.386 100.063C111.998 100.089 112.517 99.6155 112.545 99.0031L112.643 96.8913C112.671 96.2773 112.197 95.7569 111.583 95.7285L106.567 95.4965C106.687 95.4402 106.799 95.382 106.903 95.3227C108.714 94.2827 109.341 91.9704 108.301 90.1586ZM104.134 90.4977C104.986 90.0081 106.074 90.3029 106.563 91.1558C107.053 92.0088 106.758 93.0962 105.906 93.5858C105.405 93.8734 104.319 94.1991 103.25 94.2822C102.725 94.3231 102.274 94.2989 101.945 94.2185C101.785 94.1794 101.679 94.1321 101.615 94.093C101.585 94.0743 101.567 94.059 101.558 94.0497C101.549 94.0409 101.546 94.0358 101.546 94.0358C101.546 94.0358 101.543 94.0301 101.54 94.0182C101.536 94.0053 101.533 93.9822 101.531 93.9466C101.529 93.8718 101.542 93.7571 101.589 93.5984C101.686 93.2743 101.892 92.8723 102.193 92.4395C102.804 91.5584 103.632 90.7853 104.134 90.4977Z" fill="white"/>
</g>
</g>
<mask id="mask11_95_6796" style="mask-type:luminance" maskUnits="userSpaceOnUse" x="-6" y="17" width="212" height="166">
<path d="M-5.6815 34.8173L192.757 17.4561L205.682 165.183L7.24289 182.544L-5.6815 34.8173Z" fill="white"/>
</mask>
<g mask="url(#mask11_95_6796)">
<path d="M124.212 56.5218L145.876 119.287C146.573 121.308 145.499 123.515 143.478 124.212L80.7126 145.876C78.692 146.573 76.4851 145.499 75.7876 143.478L54.1242 80.7126C53.4268 78.6919 54.5012 76.485 56.5219 75.7876L119.287 54.1242C121.308 53.4268 123.515 54.5011 124.212 56.5218Z" fill="#196FFF"/>
<path d="M122.314 92.2983C126.565 104.613 120.017 118.064 107.702 122.314C95.3865 126.565 81.9364 120.017 77.6858 107.702C73.4353 95.3864 79.9831 81.9363 92.2983 77.6858C104.614 73.4352 118.064 79.9831 122.314 92.2983Z" fill="#196FFF"/>
<mask id="mask12_95_6796" style="mask-type:luminance" maskUnits="userSpaceOnUse" x="83" y="83" width="35" height="35">
<path d="M83.2073 92.9136L108.109 83.6766L117.346 108.578L92.4444 117.815L83.2073 92.9136Z" fill="white"/>
</mask>
<g mask="url(#mask12_95_6796)">
<path d="M91.3497 93.5561C91.5551 92.6 92.4973 91.9914 93.4531 92.1975C94.0149 92.3184 95.0341 92.8003 95.8796 93.4504C96.2948 93.7696 96.6124 94.088 96.8017 94.366C96.8947 94.502 96.9412 94.6069 96.9618 94.6784C96.9716 94.7125 96.9748 94.7355 96.9756 94.7488C96.976 94.761 96.9753 94.7672 96.9753 94.7672C96.9753 94.7672 96.9734 94.7732 96.968 94.7841C96.9617 94.7958 96.9496 94.8157 96.9265 94.8425C96.8783 94.8988 96.7923 94.9755 96.6518 95.0613C96.3651 95.2367 95.945 95.3961 95.4349 95.5163C94.3966 95.7609 93.2696 95.7806 92.7078 95.6597C91.7515 95.4538 91.1438 94.5124 91.3497 93.5561ZM92.9801 112.895L90.1705 105.321L99.6123 101.819L103.192 111.468L105.059 110.775L101.48 101.126L110.922 97.6237L113.731 105.198C114.156 106.344 113.572 107.618 112.426 108.043L95.825 114.201C94.679 114.626 93.4052 114.041 92.9801 112.895ZM103.558 87.8854C101.902 86.6308 99.5417 86.9563 98.287 88.6127C97.7399 89.335 97.2143 90.5716 96.9425 91.7577C95.963 91.0358 94.758 90.4411 93.8722 90.2503C91.8409 89.8129 89.8393 91.1054 89.4018 93.1367C88.9644 95.168 90.2574 97.1695 92.2887 97.6069C92.4048 97.6317 92.5289 97.653 92.6592 97.6701L87.9767 99.4071C87.4034 99.6197 87.1113 100.256 87.324 100.83L88.0553 102.801C88.2673 103.373 88.9021 103.665 89.4741 103.455L98.9195 99.9512L97.4185 95.9047L99.2861 95.2119L100.787 99.2584L110.233 95.7547C110.803 95.5407 111.094 94.9053 110.882 94.3336L110.15 92.3622C109.938 91.789 109.301 91.4969 108.728 91.7095L104.045 93.4467C104.133 93.3485 104.213 93.2514 104.285 93.1569C105.54 91.5006 105.215 89.1401 103.558 87.8854ZM99.8746 89.8155C100.465 89.0359 101.575 88.883 102.355 89.4737C103.135 90.0644 103.288 91.1745 102.697 91.9541C102.35 92.4122 101.483 93.1322 100.537 93.6238C100.072 93.8652 99.649 94.0185 99.3173 94.0725C99.1549 94.0992 99.0396 94.0971 98.9664 94.0859C98.9314 94.0806 98.9092 94.0734 98.8968 94.0686C98.8856 94.0639 98.8803 94.0606 98.8803 94.0606C98.8803 94.0606 98.8758 94.0563 98.8681 94.0468C98.86 94.0362 98.8475 94.0167 98.8326 93.9844C98.8016 93.9168 98.7685 93.8069 98.7502 93.6432C98.7124 93.309 98.7456 92.8606 98.8522 92.3477C99.0692 91.3035 99.5275 90.2736 99.8746 89.8155Z" fill="white"/>
</g>
</g>
</g>
</svg>
