<svg width="200" height="200" viewBox="0 0 200 200" fill="none" xmlns="http://www.w3.org/2000/svg">
<mask id="mask0_95_6976" style="mask-type:luminance" maskUnits="userSpaceOnUse" x="0" y="0" width="200" height="200">
<path d="M200 0H0V200H200V0Z" fill="white"/>
</mask>
<g mask="url(#mask0_95_6976)">
<mask id="mask1_95_6976" style="mask-type:luminance" maskUnits="userSpaceOnUse" x="3" y="-2" width="194" height="194">
<path d="M3.32623 8.66797L186.432 -1.5738L196.674 181.532L13.568 191.774L3.32623 8.66797Z" fill="white"/>
</mask>
<g mask="url(#mask1_95_6976)">
<path d="M160.453 73.6699L135.891 34.0901C134.731 32.221 132.276 31.6464 130.407 32.8061L42.7992 87.1735C40.9302 88.3331 40.3554 90.7886 41.5152 92.6574L66.0778 132.238C67.2377 134.107 69.6928 134.681 71.5618 133.521L159.169 79.1541C161.038 77.9942 161.613 75.539 160.453 73.6699Z" fill="#5BCE55"/>
<path d="M66.0779 132.237L43.5073 95.8673C53.1542 98.6714 91.0709 114.497 132.103 95.951L71.5619 133.521C69.693 134.681 67.2378 134.106 66.0779 132.237Z" fill="#4EB346"/>
<path d="M159.015 78.7516L134.032 38.4949C132.988 36.8129 130.459 36.4941 128.382 37.7827L41.5264 91.6833C41.3842 91.7715 41.2494 91.8659 41.1192 91.964C40.3837 90.3124 41.2407 88.1407 43.1752 86.9403L130.031 33.0395C132.107 31.7508 134.637 32.0697 135.681 33.7518L160.663 74.0084C161.636 75.5755 160.974 77.7718 159.201 79.1069C159.147 78.9857 159.086 78.8668 159.015 78.7516Z" fill="#73DA6D"/>
<path d="M160.453 73.6699L135.891 34.0901C134.731 32.221 132.276 31.6464 130.407 32.8061L42.7992 87.1735C40.9302 88.3331 40.3554 90.7886 41.5152 92.6574L66.0778 132.238C67.2377 134.107 69.6928 134.681 71.5618 133.521L159.169 79.1541C161.038 77.9942 161.613 75.539 160.453 73.6699Z" stroke="#2C3447" stroke-width="3.88179" stroke-linecap="round" stroke-linejoin="round"/>
<path d="M146.217 65.7012L136.711 50.3843C130.574 54.1931 122.511 52.3054 118.702 46.1679L59.9684 82.6169C63.7771 88.7544 61.8893 96.8174 55.7519 100.626L65.2572 115.943C71.3946 112.134 79.4577 114.022 83.2666 120.159L142 83.7105C138.192 77.5731 140.079 69.51 146.217 65.7012Z" fill="#D8D9DA"/>
<path d="M57.0223 102.673L55.7519 100.626C58.7253 98.781 60.6976 95.9362 61.5115 92.7966C61.5119 96.5064 59.9352 100.143 57.0223 102.673Z" fill="white"/>
<path d="M137.438 55.5322C131.301 59.3411 123.238 57.4535 119.429 51.3158L61.1109 84.9428C60.813 84.1462 60.434 83.3671 59.9684 82.6168L118.702 46.1679C122.511 52.3053 130.574 54.1933 136.712 50.3845L146.217 65.7012C145.61 66.0777 145.047 66.4971 144.524 66.951L137.438 55.5322Z" fill="#E9EAEB"/>
<path d="M153.113 76.8142L129.815 39.2715L48.8555 89.5133L72.1535 127.056L153.113 76.8142Z" stroke="#2C3447" stroke-width="3.88179" stroke-linecap="round" stroke-linejoin="round"/>
<path d="M83.2666 120.16C79.4578 114.022 71.3948 112.134 65.2573 115.943L55.7519 100.626C56.4585 100.188 57.1057 99.691 57.6974 99.1491C72.1488 101.786 87.4847 108.375 110.852 103.041L83.2666 120.16Z" fill="#CCCDCE"/>
<path d="M146.217 65.7012L136.711 50.3843C130.574 54.1931 122.511 52.3054 118.702 46.1679L59.9684 82.6169C63.7771 88.7544 61.8893 96.8174 55.7519 100.626L65.2572 115.943C71.3946 112.134 79.4577 114.022 83.2666 120.159L142 83.7105C138.192 77.5731 140.079 69.51 146.217 65.7012Z" stroke="#2C3447" stroke-width="3.88179" stroke-linecap="round" stroke-linejoin="round"/>
<path d="M110.009 97.7065C101.978 102.691 91.4259 100.22 86.4416 92.1888C81.4574 84.157 83.9277 73.6056 91.9596 68.6212C99.9911 63.6369 110.543 66.1071 115.527 74.1389C120.511 82.1705 118.041 92.7221 110.009 97.7065Z" fill="#5BCE55"/>
<path d="M110.009 97.7065C101.978 102.691 91.4259 100.22 86.4416 92.1888C81.4574 84.157 83.9277 73.6056 91.9596 68.6212C99.9911 63.6369 110.543 66.1071 115.527 74.1389C120.511 82.1705 118.041 92.7221 110.009 97.7065Z" stroke="#2C3447" stroke-width="3.88179" stroke-linecap="round" stroke-linejoin="round"/>
<path d="M161.442 91.0732L142.769 48.3977C141.887 46.3825 139.539 45.464 137.523 46.3455L43.0639 87.6771C41.0488 88.5587 40.13 90.9071 41.0117 92.9222L59.6849 135.598C60.5667 137.613 62.9149 138.532 64.9301 137.65L159.39 96.3185C161.405 95.4367 162.323 93.0885 161.442 91.0732Z" fill="#5BCE55"/>
<path d="M59.685 135.598L42.5262 96.3832C51.6752 100.533 86.9505 121.599 130.206 109.088L64.9301 137.65C62.9151 138.532 60.5668 137.613 59.685 135.598Z" fill="#4EB346"/>
<path d="M159.294 95.898L140.301 52.4928C139.508 50.6792 137.049 50.0033 134.81 50.983L41.1615 91.9596C41.0083 92.0266 40.8614 92.1008 40.7185 92.1794C40.2258 90.4399 41.3835 88.4124 43.4693 87.4999L137.118 46.523C139.357 45.5432 141.816 46.2193 142.609 48.033L161.601 91.4382C162.341 93.1278 161.373 95.2074 159.427 96.2763C159.391 96.1486 159.348 96.0223 159.294 95.898Z" fill="#73DA6D"/>
<path d="M161.442 91.0732L142.769 48.3977C141.887 46.3825 139.539 45.464 137.523 46.3455L43.0639 87.6771C41.0488 88.5587 40.13 90.9071 41.0117 92.9222L59.6849 135.598C60.5667 137.613 62.9149 138.532 64.9301 137.65L159.39 96.3185C161.405 95.4367 162.323 93.0885 161.442 91.0732Z" stroke="#2C3447" stroke-width="3.88179" stroke-linecap="round" stroke-linejoin="round"/>
<path d="M148.486 81.1575L141.259 64.6427C134.642 67.5383 126.93 64.521 124.035 57.9035L60.7071 85.613C63.6026 92.2305 60.5854 99.9424 53.968 102.838L61.1941 119.353C67.8116 116.457 75.5234 119.474 78.4191 126.092L141.747 98.3825C138.851 91.765 141.868 84.0531 148.486 81.1575Z" fill="#D8D9DA"/>
<path d="M54.9337 105.045L53.9679 102.838C57.1739 101.435 59.5314 98.9004 60.7843 95.9088C60.2561 99.5808 58.1774 102.956 54.9337 105.045Z" fill="white"/>
<path d="M141.245 69.8416C134.628 72.7372 126.916 69.7201 124.02 63.1024L61.5066 88.078C61.3252 87.247 61.0611 86.4219 60.7071 85.613L124.035 57.9035C126.93 64.521 134.642 67.5384 141.259 64.6428L148.486 81.1575C147.832 81.4437 147.214 81.7786 146.632 82.1534L141.245 69.8416Z" fill="#E9EAEB"/>
<path d="M153.729 93.1397L136.017 52.6607L48.7251 90.8559L66.4368 131.335L153.729 93.1397Z" stroke="#2C3447" stroke-width="3.88179" stroke-linecap="round" stroke-linejoin="round"/>
<path d="M78.419 126.092C75.5235 119.474 67.8117 116.457 61.1942 119.353L53.9679 102.838C54.7298 102.505 55.4412 102.105 56.104 101.653C70.0323 106.322 84.273 115.029 108.162 113.078L78.419 126.092Z" fill="#CCCDCE"/>
<path d="M148.486 81.1575L141.259 64.6427C134.642 67.5383 126.93 64.521 124.035 57.9035L60.7071 85.613C63.6026 92.2305 60.5854 99.9424 53.968 102.838L61.1941 119.353C67.8116 116.457 75.5234 119.474 78.4191 126.092L141.747 98.3825C138.851 91.765 141.868 84.0531 148.486 81.1575Z" stroke="#2C3447" stroke-width="3.88179" stroke-linecap="round" stroke-linejoin="round"/>
<path d="M108.088 107.678C99.428 111.467 89.3358 107.519 85.5467 98.8588C81.7575 90.1989 85.7059 80.1071 94.3659 76.3178C103.026 72.5286 113.118 76.4769 116.907 85.1368C120.696 93.7966 116.747 103.889 108.088 107.678Z" fill="#5BCE55"/>
<path d="M108.088 107.678C99.428 111.467 89.3358 107.519 85.5467 98.8588C81.7575 90.1989 85.7059 80.1071 94.3659 76.3178C103.026 72.5286 113.118 76.4769 116.907 85.1368C120.696 93.7966 116.747 103.889 108.088 107.678Z" stroke="#2C3447" stroke-width="3.88179" stroke-linecap="round" stroke-linejoin="round"/>
<path d="M160.037 107.826L147.405 62.989C146.809 60.8717 144.609 59.6392 142.492 60.2355L43.2487 88.1937C41.1316 88.79 39.8988 90.99 40.4952 93.1071L53.1265 137.944C53.723 140.061 55.9226 141.294 58.0399 140.697L157.283 112.739C159.4 112.143 160.633 109.943 160.037 107.826Z" fill="#5BCE55"/>
<path d="M53.1266 137.944L41.5197 96.7434C50.0116 102.111 82.0573 127.825 126.622 121.377L58.04 140.698C55.9229 141.294 53.7231 140.061 53.1266 137.944Z" fill="#4EB346"/>
<path d="M157.246 112.31L144.399 66.7061C143.862 64.8007 141.52 63.7933 139.167 64.456L40.7759 92.1741C40.6149 92.2195 40.4592 92.2728 40.3069 92.331C40.0579 90.5403 41.4832 88.6911 43.6746 88.0739L142.066 60.3555C144.418 59.6927 146.761 60.7002 147.297 62.6058L160.145 108.209C160.645 109.984 159.401 111.911 157.326 112.703C157.308 112.571 157.283 112.44 157.246 112.31Z" fill="#73DA6D"/>
<path d="M160.037 107.826L147.405 62.989C146.809 60.8717 144.609 59.6392 142.492 60.2355L43.2487 88.1937C41.1316 88.79 39.8988 90.99 40.4952 93.1071L53.1265 137.944C53.723 140.061 55.9226 141.294 58.0399 140.697L157.283 112.739C159.4 112.143 160.633 109.943 160.037 107.826Z" stroke="#2C3447" stroke-width="3.88179" stroke-linecap="round" stroke-linejoin="round"/>
<path d="M148.566 96.2236L143.678 78.8724C136.726 80.8311 129.502 76.7827 127.543 69.8301L61.0082 88.5738C62.9668 95.5265 58.9184 102.751 51.9659 104.709L56.8539 122.06C63.8065 120.102 71.0306 124.15 72.9893 131.103L139.524 112.359C137.565 105.406 141.614 98.1823 148.566 96.2236Z" fill="#D8D9DA"/>
<path d="M52.6191 107.028L51.9657 104.709C55.3341 103.76 58.0175 101.574 59.6697 98.7826C58.6419 102.347 56.1192 105.404 52.6191 107.028Z" fill="white"/>
<path d="M142.95 84.0201C135.997 85.9789 128.773 81.9306 126.814 74.9778L61.4613 91.1254C61.3959 90.2774 61.2476 89.4238 61.0082 88.5739L127.543 69.8301C129.502 76.7827 136.726 80.8313 143.678 78.8726L148.566 96.2236C147.879 96.4173 147.221 96.6641 146.594 96.9555L142.95 84.0201Z" fill="#E9EAEB"/>
<path d="M152.113 108.813L140.132 66.2836L48.4194 92.1203L60.4002 134.649L152.113 108.813Z" stroke="#2C3447" stroke-width="3.88179" stroke-linecap="round" stroke-linejoin="round"/>
<path d="M72.9892 131.103C71.0306 124.15 63.8066 120.102 56.8539 122.061L51.9658 104.709C52.7662 104.484 53.5258 104.186 54.2445 103.829C67.399 110.368 80.308 120.949 104.238 122.3L72.9892 131.103Z" fill="#CCCDCE"/>
<path d="M148.566 96.2236L143.678 78.8724C136.726 80.8311 129.502 76.7827 127.543 69.8301L61.0082 88.5738C62.9668 95.5265 58.9184 102.751 51.9659 104.709L56.8539 122.06C63.8065 120.102 71.0306 124.15 72.9893 131.103L139.524 112.359C137.565 105.406 141.614 98.1823 148.566 96.2236Z" stroke="#2C3447" stroke-width="3.88179" stroke-linecap="round" stroke-linejoin="round"/>
<path d="M104.907 116.941C95.8087 119.504 86.3549 114.206 83.7917 105.108C81.2286 96.0091 86.5264 86.5556 95.625 83.9924C104.723 81.4292 114.177 86.7269 116.74 95.8254C119.303 104.924 114.005 114.377 104.907 116.941Z" fill="#5BCE55"/>
<path d="M104.907 116.941C95.8087 119.504 86.3549 114.206 83.7917 105.108C81.2286 96.0091 86.5264 86.5556 95.625 83.9924C104.723 81.4292 114.177 86.7269 116.74 95.8254C119.303 104.924 114.005 114.377 104.907 116.941Z" stroke="#2C3447" stroke-width="3.88179" stroke-linecap="round" stroke-linejoin="round"/>
<path d="M160.957 170.067L42.7283 176.68C36.098 177.051 30.4225 171.976 30.0516 165.346L25.969 92.3557C25.5982 85.7252 30.6724 80.0497 37.3027 79.6788L155.531 73.0659C162.162 72.695 167.838 77.7693 168.208 84.3997L172.291 157.39C172.662 164.02 167.587 169.696 160.957 170.067Z" fill="#F2AE64"/>
<path d="M42.7283 176.68L160.957 170.067C167.587 169.696 172.662 164.021 172.291 157.39L168.208 84.3997C168.022 81.0661 166.494 78.1269 164.178 76.0742L163.01 75.4585C163.01 75.4585 111.914 163.535 45.8238 175.646C44.0002 175.98 42.3449 176.311 40.8492 176.639C41.4644 176.7 42.0918 176.715 42.7283 176.68Z" fill="#E19F5B"/>
<path d="M35.4279 169.011L31.3453 96.0204C30.9745 89.3901 36.0489 83.7146 42.6792 83.3437L160.908 76.7308C162.483 76.6427 164.003 76.8649 165.412 77.3394C163.059 74.5408 159.463 72.8458 155.531 73.0657L37.3027 79.6787C30.6724 80.0495 25.598 85.7251 25.9688 92.3555L30.0514 165.346C30.3342 170.401 33.702 174.548 38.2239 176.071C36.6089 174.15 35.5789 171.71 35.4279 169.011Z" fill="#F9BC7F"/>
<path d="M169.727 111.547L150.287 112.634C143.175 113.032 137.732 119.121 138.13 126.233C138.528 133.345 144.616 138.788 151.728 138.39L171.167 137.303L169.727 111.547Z" fill="#C27E46"/>
<path d="M166.622 135.025C166.568 134.065 165.744 133.328 164.785 133.382C163.825 133.436 163.088 134.26 163.142 135.219L163.283 137.744L166.763 137.549L166.622 135.025Z" fill="#C27E46"/>
<path d="M163.283 137.744L163.467 141.03C163.521 141.989 164.345 142.726 165.304 142.672C166.264 142.619 167.001 141.794 166.947 140.835L166.763 137.549L163.283 137.744Z" fill="#DE9A57"/>
<path d="M160.957 170.067L42.7283 176.68C36.098 177.051 30.4225 171.976 30.0516 165.346L25.969 92.3557C25.5982 85.7252 30.6724 80.0497 37.3027 79.6788L155.531 73.0659C162.162 72.695 167.838 77.7693 168.208 84.3997L172.291 157.39C172.662 164.02 167.587 169.696 160.957 170.067Z" stroke="#2C3447" stroke-width="3.88179" stroke-linecap="round" stroke-linejoin="round"/>
<path d="M96.7521 165.099L90.9415 165.424C89.9822 165.477 89.2453 166.302 89.299 167.261C89.3526 168.22 90.1768 168.957 91.1362 168.904L96.9467 168.579C97.9061 168.525 98.6429 167.701 98.5893 166.741C98.5356 165.782 97.7114 165.045 96.7521 165.099Z" fill="#DE9A57"/>
<path d="M68.6774 85.5014C68.6238 84.542 67.7996 83.8051 66.8402 83.8588L61.0297 84.1838C60.0703 84.2375 59.3335 85.0617 59.3871 86.021C59.4408 86.9805 60.265 87.7172 61.2243 87.6636L67.0349 87.3386C67.9942 87.2849 68.7311 86.4609 68.6774 85.5014Z" fill="#DE9A57"/>
<path d="M61.8893 167.049L56.0787 167.374C55.1192 167.427 54.3824 168.252 54.436 169.211C54.4897 170.17 55.3139 170.907 56.2734 170.854L62.084 170.529C63.0433 170.475 63.7802 169.651 63.7265 168.691C63.6728 167.732 62.8487 166.995 61.8893 167.049Z" fill="#DE9A57"/>
<path d="M57.0566 86.1514C57.003 85.192 56.1786 84.4552 55.2193 84.5088L49.4087 84.8338C48.4493 84.8875 47.7123 85.7117 47.766 86.671C47.8196 87.6305 48.644 88.3672 49.6033 88.3136L55.4139 87.9886C56.3732 87.9349 57.1103 87.1109 57.0566 86.1514Z" fill="#DE9A57"/>
<path d="M50.268 167.699L47.087 167.877C46.3532 167.918 45.6194 167.867 44.9061 167.725C44.7615 167.695 44.614 167.685 44.4674 167.693C43.6743 167.738 43.0118 168.313 42.8566 169.093C42.7654 169.549 42.8575 170.014 43.1159 170.401C43.3746 170.788 43.7684 171.051 44.2246 171.142C45.2262 171.342 46.2547 171.414 47.2816 171.357L50.4626 171.179C51.422 171.125 52.1589 170.301 52.1052 169.342C52.0515 168.382 51.2273 167.645 50.268 167.699Z" fill="#DE9A57"/>
<path d="M80.2984 84.8513C80.2448 83.892 79.4206 83.1551 78.4612 83.2088L72.6508 83.5338C71.6913 83.5874 70.9544 84.4116 71.0081 85.371C71.0618 86.3305 71.8859 87.0672 72.8454 87.0135L78.6559 86.6885C79.6152 86.6349 80.3521 85.8109 80.2984 84.8513Z" fill="#DE9A57"/>
<path d="M91.9196 84.2014C91.8659 83.242 91.0418 82.5052 90.0824 82.5588L84.2718 82.8838C83.3125 82.9375 82.5756 83.7617 82.6293 84.721C82.6829 85.6805 83.5071 86.4172 84.4665 86.3636L90.277 86.0386C91.2364 85.9849 91.9733 85.1609 91.9196 84.2014Z" fill="#DE9A57"/>
<path d="M85.1313 165.749L79.3205 166.074C78.361 166.127 77.6241 166.952 77.6778 167.911C77.7315 168.87 78.5557 169.607 79.5152 169.554L85.3259 169.229C86.2853 169.175 87.0221 168.351 86.9685 167.391C86.9148 166.432 86.0906 165.695 85.1313 165.749Z" fill="#DE9A57"/>
<path d="M73.5101 166.399L67.6995 166.724C66.7402 166.777 66.0033 167.602 66.057 168.561C66.1106 169.52 66.9348 170.257 67.8942 170.204L73.7048 169.879C74.6641 169.825 75.401 169.001 75.3473 168.041C75.2937 167.082 74.4695 166.345 73.5101 166.399Z" fill="#DE9A57"/>
<path d="M33.52 111.318C34.4794 111.264 35.2162 110.44 35.1626 109.48L34.8376 103.67C34.7839 102.711 33.9597 101.974 33.0004 102.027C32.041 102.081 31.3042 102.905 31.3578 103.865L31.6828 109.675C31.7365 110.634 32.5607 111.371 33.52 111.318Z" fill="#DE9A57"/>
<path d="M34.17 122.939C35.1294 122.885 35.8663 122.061 35.8126 121.101L35.4876 115.291C35.4339 114.332 34.6097 113.595 33.6504 113.648C32.6911 113.702 31.9542 114.526 32.0078 115.486L32.3328 121.296C32.3865 122.255 33.2107 122.992 34.17 122.939Z" fill="#DE9A57"/>
<path d="M32.87 99.6964C33.8293 99.6428 34.5662 98.8188 34.5126 97.8594L34.5101 97.8162C34.4191 96.1878 34.7856 94.5771 35.5702 93.1584C35.7955 92.7512 35.8488 92.2806 35.72 91.833C35.5912 91.3858 35.2958 91.0154 34.889 90.7904C34.6013 90.6312 34.2762 90.5566 33.949 90.5749C33.3465 90.6086 32.8123 90.9439 32.5203 91.4717C31.4177 93.4653 30.9026 95.7264 31.0304 98.0108L31.0328 98.0541C31.0865 99.0134 31.9107 99.7501 32.87 99.6964Z" fill="#DE9A57"/>
<path d="M34.82 134.56C35.7794 134.506 36.5163 133.682 36.4626 132.722L36.1376 126.912C36.0839 125.952 35.2597 125.216 34.3004 125.269C33.341 125.323 32.6042 126.147 32.6578 127.107L32.9828 132.917C33.0365 133.876 33.8607 134.613 34.82 134.56Z" fill="#DE9A57"/>
<path d="M36.1201 157.802C37.0794 157.748 37.8163 156.924 37.7626 155.965L37.4376 150.154C37.384 149.195 36.5598 148.458 35.6004 148.511C34.6411 148.565 33.9042 149.389 33.9579 150.349L34.2829 156.159C34.3365 157.119 35.1607 157.856 36.1201 157.802Z" fill="#DE9A57"/>
<path d="M35.47 146.181C36.4294 146.127 37.1662 145.303 37.1126 144.343L36.7876 138.533C36.7339 137.573 35.9097 136.837 34.9504 136.89C33.991 136.944 33.2542 137.768 33.3078 138.727L33.6328 144.538C33.6865 145.497 34.5107 146.234 35.47 146.181Z" fill="#DE9A57"/>
<path d="M38.2337 161.412C38.027 160.61 37.2764 160.061 36.4496 160.107C36.3363 160.114 36.2223 160.131 36.1112 160.16C35.1812 160.4 34.619 161.351 34.8585 162.282C35.4271 164.488 36.6064 166.486 38.2689 168.058C38.6155 168.385 39.0875 168.558 39.5639 168.532C40.0102 168.507 40.4253 168.314 40.7326 167.989C41.3925 167.291 41.3617 166.186 40.6637 165.525C39.4783 164.405 38.6381 162.982 38.2337 161.412Z" fill="#DE9A57"/>
<path d="M42.6584 88.702L43.7929 88.6386C44.7523 88.5849 45.4891 87.7607 45.4355 86.8014C45.3818 85.842 44.5576 85.105 43.5983 85.1587L42.4636 85.2221C40.6148 85.3259 38.8621 85.8314 37.2544 86.7251C36.8474 86.9513 36.5527 87.3225 36.4251 87.7699C36.2972 88.2178 36.3514 88.6881 36.5776 89.0948C36.8998 89.6748 37.5364 90.0258 38.199 89.9887C38.4634 89.9739 38.7151 89.9006 38.9472 89.7716C40.0913 89.136 41.34 88.7759 42.6584 88.702Z" fill="#DE9A57"/>
<path d="M119.994 163.799L114.184 164.124C113.224 164.177 112.487 165.002 112.541 165.961C112.595 166.92 113.419 167.657 114.378 167.604L120.189 167.279C121.148 167.225 121.885 166.401 121.831 165.441C121.778 164.482 120.954 163.745 119.994 163.799Z" fill="#DE9A57"/>
<path d="M164.135 121.761C163.175 121.815 162.438 122.639 162.492 123.598L162.817 129.409C162.871 130.368 163.695 131.105 164.654 131.051C165.614 130.998 166.351 130.173 166.297 129.214L165.972 123.404C165.918 122.444 165.094 121.707 164.135 121.761Z" fill="#DE9A57"/>
<path d="M165.435 145.003C164.475 145.057 163.738 145.881 163.792 146.84L164.117 152.651C164.171 153.61 164.995 154.347 165.954 154.293C166.914 154.24 167.651 153.415 167.597 152.456L167.272 146.646C167.218 145.686 166.394 144.949 165.435 145.003Z" fill="#DE9A57"/>
<path d="M165.434 156.628C165.147 156.47 164.824 156.397 164.498 156.415C163.893 156.449 163.359 156.785 163.067 157.315C162.282 158.742 161.116 159.916 159.697 160.709C159.291 160.935 158.997 161.307 158.87 161.755C158.743 162.202 158.799 162.673 159.025 163.079C159.348 163.657 159.984 164.007 160.645 163.97C160.911 163.955 161.163 163.881 161.397 163.751C163.386 162.64 165.02 160.995 166.121 158.995C166.584 158.153 166.276 157.092 165.434 156.628Z" fill="#DE9A57"/>
<path d="M159.275 85.4517C159.72 85.4268 160.134 85.2351 160.441 84.9118C161.103 84.2152 161.074 83.11 160.377 82.4481C158.718 80.8722 156.661 79.8014 154.427 79.3511C154.282 79.3222 154.134 79.3114 153.987 79.3196C153.195 79.3639 152.533 79.9378 152.376 80.7153C152.186 81.6571 152.798 82.5781 153.74 82.7681C155.329 83.0883 156.794 83.8515 157.978 84.9755C158.325 85.3047 158.797 85.4784 159.275 85.4517Z" fill="#DE9A57"/>
<path d="M163.776 88.2312C163.571 87.4263 162.82 86.8757 161.99 86.9221C161.879 86.9283 161.767 86.9457 161.657 86.9736C160.726 87.211 160.162 88.1617 160.399 89.0929C160.538 89.6357 160.624 90.1969 160.655 90.7604L160.867 94.5458C160.921 95.5052 161.745 96.2421 162.704 96.1884C163.664 96.1347 164.401 95.3105 164.347 94.3512L164.135 90.5658C164.091 89.7768 163.97 88.9914 163.776 88.2312Z" fill="#DE9A57"/>
<path d="M162.835 98.5188C161.875 98.5724 161.138 99.397 161.192 100.356L161.517 106.167C161.571 107.126 162.395 107.863 163.354 107.809C164.314 107.756 165.051 106.931 164.997 105.972L164.672 100.162C164.618 99.2023 163.794 98.4651 162.835 98.5188Z" fill="#DE9A57"/>
<path d="M163.485 110.14C162.525 110.194 161.788 111.018 161.842 111.977L162.167 117.788C162.221 118.747 163.045 119.484 164.004 119.43C164.964 119.377 165.701 118.553 165.647 117.593L165.322 111.783C165.268 110.823 164.444 110.086 163.485 110.14Z" fill="#DE9A57"/>
<path d="M103.541 83.5513C103.487 82.592 102.663 81.8551 101.703 81.9088L95.8926 82.2338C94.9333 82.2875 94.1964 83.1116 94.2501 84.071C94.3037 85.0305 95.1279 85.7672 96.0873 85.7135L101.898 85.3885C102.857 85.3349 103.594 84.5108 103.541 83.5513Z" fill="#DE9A57"/>
<path d="M131.615 163.149L125.805 163.474C124.845 163.527 124.108 164.352 124.162 165.311C124.216 166.27 125.04 167.007 125.999 166.954L131.81 166.629C132.769 166.575 133.506 165.751 133.453 164.791C133.399 163.832 132.575 163.095 131.615 163.149Z" fill="#DE9A57"/>
<path d="M154.857 161.849L149.047 162.174C148.087 162.227 147.35 163.052 147.404 164.011C147.458 164.97 148.282 165.707 149.241 165.654L155.052 165.329C156.011 165.275 156.748 164.451 156.695 163.491C156.641 162.532 155.817 161.795 154.857 161.849Z" fill="#DE9A57"/>
<path d="M126.783 82.2514C126.729 81.292 125.905 80.5551 124.945 80.6088L119.135 80.9338C118.175 80.9875 117.439 81.8117 117.492 82.771C117.546 83.7305 118.37 84.4672 119.33 84.4136L125.14 84.0886C126.099 84.0349 126.836 83.2109 126.783 82.2514Z" fill="#DE9A57"/>
<path d="M108.373 164.449L102.563 164.774C101.603 164.827 100.866 165.652 100.92 166.611C100.974 167.57 101.798 168.307 102.757 168.254L108.568 167.929C109.527 167.875 110.264 167.051 110.211 166.091C110.157 165.132 109.333 164.395 108.373 164.449Z" fill="#DE9A57"/>
<path d="M115.162 82.9013C115.108 81.942 114.284 81.2051 113.324 81.2588L107.514 81.5838C106.554 81.6374 105.817 82.4616 105.871 83.421C105.925 84.3805 106.749 85.1172 107.708 85.0635L113.519 84.7385C114.478 84.6849 115.215 83.8608 115.162 82.9013Z" fill="#DE9A57"/>
<path d="M150.025 80.9513C149.971 79.9919 149.147 79.2551 148.187 79.3088L142.377 79.6338C141.417 79.6874 140.681 80.5116 140.734 81.471C140.788 82.4305 141.612 83.1672 142.571 83.1135L148.382 82.7885C149.341 82.7348 150.079 81.9108 150.025 80.9513Z" fill="#DE9A57"/>
<path d="M143.236 162.499L137.426 162.824C136.466 162.877 135.729 163.702 135.783 164.661C135.837 165.62 136.661 166.357 137.62 166.304L143.431 165.979C144.39 165.925 145.127 165.101 145.074 164.141C145.02 163.182 144.196 162.445 143.236 162.499Z" fill="#DE9A57"/>
<path d="M138.404 81.6013C138.35 80.642 137.526 79.9051 136.567 79.9588L130.756 80.2838C129.797 80.3374 129.06 81.1616 129.113 82.121C129.167 83.0805 129.991 83.8172 130.951 83.7635L136.761 83.4385C137.72 83.3849 138.457 82.5609 138.404 81.6013Z" fill="#DE9A57"/>
<path d="M154.831 164.305L149.02 164.63C148.42 164.663 147.906 164.204 147.872 163.603C147.838 163.002 148.298 162.488 148.898 162.455L154.709 162.13C155.31 162.096 155.824 162.556 155.858 163.156C155.891 163.757 155.431 164.271 154.831 164.305ZM143.21 164.955L137.399 165.28C136.799 165.313 136.285 164.854 136.251 164.253C136.217 163.652 136.677 163.138 137.278 163.105L143.088 162.78C143.689 162.746 144.203 163.206 144.237 163.806C144.27 164.407 143.81 164.921 143.21 164.955ZM131.589 165.605L125.778 165.93C125.178 165.963 124.664 165.504 124.63 164.903C124.596 164.302 125.056 163.788 125.656 163.755L131.467 163.43C132.068 163.396 132.582 163.856 132.615 164.456C132.649 165.057 132.19 165.571 131.589 165.605ZM119.968 166.255L114.157 166.58C113.557 166.613 113.043 166.154 113.009 165.553C112.975 164.952 113.435 164.438 114.036 164.405L119.846 164.08C120.447 164.046 120.961 164.506 120.994 165.106C121.028 165.707 120.568 166.221 119.968 166.255ZM108.347 166.905L102.536 167.23C101.936 167.263 101.421 166.804 101.388 166.203C101.354 165.602 101.814 165.088 102.415 165.055L108.225 164.73C108.826 164.696 109.34 165.156 109.373 165.756C109.407 166.357 108.948 166.871 108.347 166.905ZM96.7259 167.555L90.9154 167.88C90.3148 167.913 89.8008 167.454 89.7672 166.853C89.7336 166.252 90.1932 165.738 90.7937 165.705L96.6043 165.38C97.2048 165.346 97.7189 165.806 97.7525 166.406C97.7861 167.007 97.3265 167.521 96.7259 167.555ZM85.1048 168.205L79.2944 168.53C78.6937 168.563 78.1796 168.104 78.146 167.503C78.1124 166.902 78.572 166.388 79.1727 166.355L84.9831 166.03C85.5838 165.996 86.0979 166.456 86.1315 167.056C86.1651 167.657 85.7055 168.171 85.1048 168.205ZM73.4838 168.855L67.6732 169.18C67.0725 169.213 66.5586 168.754 66.525 168.153C66.4914 167.552 66.9509 167.038 67.5516 167.005L73.3621 166.68C73.9628 166.646 74.4769 167.106 74.5105 167.706C74.5441 168.307 74.0845 168.821 73.4838 168.855ZM61.863 169.505L56.0522 169.83C55.4515 169.863 54.9375 169.404 54.9039 168.803C54.8703 168.202 55.3299 167.688 55.9306 167.655L61.7413 167.33C62.3419 167.296 62.8559 167.756 62.8895 168.356C62.9231 168.957 62.4635 169.471 61.863 169.505ZM50.2417 170.155L47.0607 170.333C46.0887 170.387 45.1151 170.319 44.168 170.13C43.5781 170.012 43.1953 169.438 43.313 168.848C43.4306 168.258 44.0047 167.876 44.5939 167.994C45.3611 168.147 46.1502 168.202 46.939 168.157L50.12 167.98C50.7205 167.946 51.2348 168.406 51.2684 169.006C51.302 169.607 50.8422 170.121 50.2417 170.155ZM160.424 162.946C160.021 162.968 159.621 162.765 159.411 162.389C159.118 161.864 159.306 161.201 159.831 160.908C161.357 160.055 162.61 158.793 163.455 157.258C163.745 156.731 164.408 156.539 164.934 156.829C165.461 157.119 165.653 157.782 165.363 158.309C164.322 160.201 162.776 161.757 160.893 162.809C160.744 162.892 160.584 162.937 160.424 162.946ZM39.3431 167.507C39.0544 167.524 38.7602 167.426 38.5336 167.211C36.9604 165.724 35.8447 163.834 35.307 161.747C35.157 161.165 35.5075 160.571 36.0902 160.421C36.6724 160.271 37.2665 160.622 37.4165 161.204C37.8517 162.893 38.7555 164.423 40.0302 165.629C40.4673 166.042 40.4866 166.731 40.0733 167.168C39.8742 167.379 39.6111 167.492 39.3431 167.507ZM165.733 153.269C165.133 153.303 164.619 152.843 164.585 152.243L164.26 146.432C164.227 145.831 164.686 145.318 165.287 145.284C165.887 145.25 166.401 145.71 166.435 146.31L166.76 152.121C166.793 152.722 166.334 153.236 165.733 153.269ZM35.8993 156.778C35.2985 156.811 34.7845 156.352 34.7509 155.751L34.4259 149.941C34.3923 149.34 34.8519 148.826 35.4526 148.792C36.0531 148.759 36.5672 149.218 36.6008 149.819L36.9258 155.629C36.9594 156.23 36.4998 156.744 35.8993 156.778ZM165.083 141.648C164.483 141.682 163.969 141.222 163.935 140.622L163.61 134.811C163.577 134.211 164.036 133.697 164.637 133.663C165.237 133.629 165.751 134.089 165.785 134.69L166.11 140.5C166.143 141.101 165.684 141.615 165.083 141.648ZM35.2492 145.156C34.6485 145.19 34.1345 144.731 34.1009 144.13L33.7759 138.319C33.7423 137.719 34.2019 137.205 34.8026 137.171C35.4031 137.138 35.9172 137.597 35.9508 138.198L36.2758 144.008C36.3094 144.609 35.8498 145.123 35.2492 145.156ZM164.433 130.027C163.833 130.061 163.319 129.601 163.285 129.001L162.96 123.19C162.927 122.589 163.386 122.076 163.987 122.042C164.587 122.008 165.101 122.468 165.135 123.068L165.46 128.879C165.493 129.48 165.034 129.994 164.433 130.027ZM34.5993 133.536C33.9985 133.569 33.4845 133.11 33.4509 132.509L33.1259 126.699C33.0923 126.098 33.5519 125.584 34.1526 125.55C34.7531 125.517 35.2672 125.976 35.3008 126.577L35.6258 132.387C35.6594 132.988 35.1998 133.502 34.5993 133.536ZM163.783 118.406C163.183 118.44 162.669 117.98 162.635 117.38L162.31 111.569C162.277 110.969 162.736 110.455 163.337 110.421C163.937 110.388 164.451 110.847 164.485 111.448L164.81 117.258C164.843 117.859 164.384 118.373 163.783 118.406ZM33.9492 121.915C33.3485 121.948 32.8345 121.489 32.8009 120.888L32.4759 115.077C32.4423 114.477 32.9019 113.963 33.5026 113.929C34.1031 113.895 34.6172 114.355 34.6508 114.956L34.9758 120.766C35.0094 121.367 34.5498 121.881 33.9492 121.915ZM163.133 106.785C162.533 106.819 162.019 106.359 161.985 105.758L161.66 99.9482C161.627 99.3477 162.086 98.8335 162.687 98.7999C163.287 98.7663 163.801 99.226 163.835 99.8266L164.16 105.637C164.193 106.238 163.734 106.752 163.133 106.785ZM33.2992 110.294C32.6985 110.327 32.1845 109.868 32.1509 109.267L31.8259 103.456C31.7923 102.856 32.2519 102.342 32.8526 102.308C33.4531 102.275 33.9672 102.734 34.0008 103.335L34.3258 109.146C34.3594 109.746 33.8998 110.26 33.2992 110.294ZM162.483 95.1643C161.883 95.1979 161.369 94.7385 161.335 94.1378L161.124 90.3525C161.09 89.7461 160.996 89.1428 160.848 88.5597C160.699 87.9769 161.051 87.3838 161.634 87.2351C162.215 87.0874 162.81 87.4382 162.959 88.0213C163.142 88.7407 163.256 89.4842 163.298 90.2309L163.51 94.0162C163.543 94.6169 163.084 95.1307 162.483 95.1643ZM32.6492 98.6727C32.0485 98.7063 31.5345 98.2465 31.5009 97.6458L31.4985 97.6029C31.3776 95.4415 31.8647 93.3023 32.9076 91.4166C33.1989 90.89 33.8618 90.6989 34.3879 90.9902C34.9143 91.2812 35.1053 91.9442 34.8139 92.4706C33.9697 93.997 33.5754 95.7298 33.6734 97.4813L33.6758 97.5242C33.7094 98.1249 33.2498 98.6391 32.6492 98.6727ZM159.054 84.4278C158.765 84.4439 158.47 84.3454 158.243 84.1302C156.971 82.9215 155.394 82.1006 153.685 81.756C153.095 81.6371 152.714 81.0626 152.832 80.4728C152.951 79.8833 153.525 79.5029 154.115 79.6206C156.227 80.0464 158.173 81.0595 159.743 82.5506C160.179 82.9649 160.197 83.6541 159.783 84.0903C159.584 84.2999 159.322 84.4128 159.054 84.4278ZM37.978 88.9645C37.5743 88.9871 37.1741 88.7832 36.9643 88.4059C36.672 87.8803 36.8614 87.2171 37.3874 86.925C38.9083 86.0797 40.5662 85.6014 42.3157 85.5034L43.4503 85.4399C44.051 85.4063 44.5651 85.8658 44.5987 86.4665C44.6323 87.067 44.1727 87.581 43.572 87.6146L42.4375 87.6781C41.0194 87.7576 39.6763 88.1451 38.4453 88.829C38.2968 88.9117 38.1371 88.9556 37.978 88.9645ZM148.161 81.7646L142.35 82.0896C141.75 82.1232 141.236 81.6636 141.202 81.0631C141.169 80.4624 141.628 79.9485 142.229 79.9149L148.039 79.5899C148.64 79.5563 149.154 80.0157 149.188 80.6164C149.221 81.217 148.762 81.731 148.161 81.7646ZM136.54 82.4146L130.73 82.7396C130.129 82.7732 129.615 82.3136 129.581 81.7131C129.548 81.1124 130.007 80.5985 130.608 80.5649L136.419 80.2399C137.019 80.2063 137.533 80.6657 137.567 81.2664C137.6 81.867 137.141 82.381 136.54 82.4146ZM124.919 83.0646L119.109 83.3896C118.508 83.4232 117.994 82.9636 117.96 82.3631C117.926 81.7624 118.386 81.2485 118.987 81.2149L124.797 80.8899C125.398 80.8563 125.912 81.3157 125.946 81.9164C125.979 82.517 125.519 83.031 124.919 83.0646ZM113.298 83.7146L107.488 84.0396C106.887 84.0732 106.373 83.6136 106.339 83.0131C106.306 82.4124 106.765 81.8985 107.366 81.8649L113.176 81.5399C113.777 81.5063 114.291 81.9657 114.325 82.5664C114.358 83.167 113.899 83.681 113.298 83.7146ZM101.677 84.3646L95.8663 84.6896C95.2658 84.7232 94.7517 84.2636 94.7181 83.6631C94.6845 83.0624 95.1441 82.5485 95.7447 82.5149L101.555 82.1899C102.156 82.1563 102.67 82.6157 102.704 83.2164C102.737 83.817 102.278 84.331 101.677 84.3646ZM90.0561 85.0146L84.2455 85.3396C83.6448 85.3732 83.1309 84.9136 83.0973 84.3131C83.0637 83.7124 83.5231 83.1985 84.1239 83.1649L89.9344 82.8399C90.5351 82.8063 91.049 83.2657 91.0826 83.8664C91.1162 84.467 90.6568 84.981 90.0561 85.0146ZM78.4347 85.6646L72.6245 85.9896C72.0238 86.0232 71.5097 85.5636 71.4762 84.9631C71.4426 84.3624 71.9022 83.8485 72.5029 83.8149L78.3131 83.4899C78.9138 83.4563 79.428 83.9157 79.4616 84.5164C79.4952 85.117 79.0355 85.631 78.4347 85.6646ZM66.8139 86.3146L61.0037 86.6396C60.403 86.6732 59.8889 86.2136 59.8553 85.6131C59.8217 85.0124 60.2813 84.4985 60.882 84.4649L66.6923 84.1399C67.2928 84.1063 67.807 84.5657 67.8406 85.1665C67.8742 85.767 67.4145 86.2811 66.8139 86.3146ZM55.1931 86.9646L49.3824 87.2897C48.7817 87.3233 48.2678 86.8636 48.2342 86.2631C48.2006 85.6624 48.66 85.1485 49.2607 85.1149L55.0715 84.7899C55.6722 84.7563 56.1861 85.2157 56.2197 85.8165C56.2532 86.417 55.7938 86.931 55.1931 86.9646Z" fill="#2C3447"/>
<path d="M173.858 133.611L151.531 134.86C144.418 135.258 138.33 129.815 137.932 122.702C137.535 115.59 142.978 109.502 150.09 109.104L172.417 107.855C173.614 107.788 174.639 108.704 174.706 109.901L175.904 131.323C175.971 132.52 175.055 133.544 173.858 133.611Z" fill="#DA924D"/>
<path d="M141.677 124.705C141.279 117.593 146.722 111.504 153.835 111.107L174.708 109.939L174.706 109.901C174.639 108.704 173.614 107.788 172.417 107.855L150.09 109.104C142.978 109.502 137.535 115.59 137.932 122.702C138.236 128.123 141.845 132.57 146.693 134.205C143.825 131.996 141.895 128.603 141.677 124.705Z" fill="#F9BC7F"/>
<path d="M173.858 133.611L151.531 134.86C144.418 135.258 138.33 129.815 137.932 122.702C137.535 115.59 142.978 109.502 150.09 109.104L172.417 107.855C173.614 107.788 174.639 108.704 174.706 109.901L175.904 131.323C175.971 132.52 175.055 133.544 173.858 133.611Z" stroke="#2C3447" stroke-width="3.88179" stroke-linecap="round" stroke-linejoin="round"/>
<path d="M153.168 114.897C148.901 115.136 145.636 118.788 145.874 123.055C146.113 127.322 149.765 130.587 154.032 130.348C158.298 130.11 161.564 126.457 161.325 122.191C161.087 117.924 157.434 114.659 153.168 114.897Z" fill="#D08C4E"/>
<path d="M152.394 128.367C155.958 128.167 158.686 125.117 158.486 121.553C158.287 117.988 155.236 115.261 151.672 115.46C148.108 115.66 145.38 118.71 145.58 122.275C145.779 125.839 148.83 128.566 152.394 128.367Z" fill="#BBBBBB"/>
<path d="M149.332 122.672C150.327 123.125 151.584 122.504 152.138 121.285C152.692 120.066 152.333 118.711 151.337 118.258C150.341 117.806 149.085 118.427 148.531 119.646C147.977 120.865 148.335 122.22 149.332 122.672Z" fill="#D5D5D3"/>
<path d="M152.394 128.367C155.958 128.167 158.686 125.117 158.486 121.553C158.287 117.988 155.236 115.261 151.672 115.46C148.108 115.66 145.38 118.71 145.58 122.275C145.779 125.839 148.83 128.566 152.394 128.367Z" stroke="#2C3447" stroke-width="3.88179" stroke-linecap="round" stroke-linejoin="round"/>
</g>
</g>
</svg>
