<svg width="252" height="201" viewBox="0 0 252 201" fill="none" xmlns="http://www.w3.org/2000/svg">
<g clip-path="url(#clip0_95_6118)">
<mask id="mask0_95_6118" style="mask-type:luminance" maskUnits="userSpaceOnUse" x="-49" y="-3" width="333" height="259">
<path d="M-48.3493 -2.2467H283.744V255.818H-48.3493V-2.2467Z" fill="white"/>
</mask>
<g mask="url(#mask0_95_6118)">
<path d="M71.9462 41.9415C88.9883 32.9195 110.15 39.4311 119.172 56.4731C128.194 73.5152 121.683 94.6772 104.641 103.699C87.5986 112.721 66.4366 106.21 57.4146 89.1676C48.3925 72.1255 54.9042 50.9635 71.9462 41.9415Z" fill="url(#paint0_linear_95_6118)"/>
<path d="M87.9475 45.4918C102.839 45.4918 114.93 57.5827 114.93 72.4744C114.93 87.3661 102.839 99.4571 87.9475 99.4571C73.0558 99.4571 60.9649 87.3661 60.9649 72.4744C60.9649 57.5827 73.0558 45.4918 87.9475 45.4918Z" fill="#17171C"/>
<mask id="mask1_95_6118" style="mask-type:luminance" maskUnits="userSpaceOnUse" x="1" y="-128" width="285" height="353">
<path d="M1.07739 203.01L28.7945 -127.925L285.959 -106.386L258.242 224.549L1.07739 203.01Z" fill="white"/>
</mask>
<g mask="url(#mask1_95_6118)">
<path d="M75.3047 72.0277C75.2779 72.0491 75.2499 72.0683 75.2225 72.0889C75.2219 72.0965 75.2212 72.1048 75.2205 72.1123C75.2461 72.1388 75.2724 72.1646 75.2964 72.1923C77.5698 74.7669 79.8425 77.3414 82.1159 79.916C82.1806 79.9894 82.1806 79.9894 82.258 79.9265C83.2113 79.1551 84.1646 78.3838 85.1179 77.6124C85.1939 77.5508 85.1939 77.5508 85.1273 77.4757C83.7055 75.866 82.2845 74.2557 80.8628 72.6453C80.8494 72.6303 80.8369 72.614 80.8229 72.5996C80.8018 72.5777 80.8034 72.5584 80.8279 72.5396C80.8441 72.5278 80.8591 72.5145 80.8748 72.5019C82.549 71.1466 84.2232 69.7921 85.8975 68.4368C85.9623 68.3839 85.9623 68.3846 85.9052 68.3201C85.0884 67.395 84.2717 66.4691 83.455 65.544C83.3973 65.4787 83.3966 65.4787 83.328 65.5347C80.6536 67.6991 77.9791 69.8634 75.3047 72.0277Z" fill="white"/>
<path d="M88.711 61.1471C88.6914 61.1239 88.6734 61.0988 88.6546 61.0743C88.6463 61.0736 88.6381 61.0729 88.6298 61.0722C88.6072 61.0933 88.5859 61.1151 88.5628 61.1347C87.6095 61.9393 86.6554 62.7446 85.7021 63.5493C85.6379 63.6037 85.6379 63.6037 85.6922 63.6672C86.5021 64.6244 87.3128 65.581 88.1234 66.5383C88.1789 66.6047 88.1797 66.6041 88.2462 66.5479C89.2031 65.7407 90.1595 64.9328 91.1165 64.1257C91.1852 64.0683 91.1845 64.0682 91.1257 63.9987C90.3208 63.0482 89.5159 62.0976 88.711 61.1471Z" fill="white"/>
<path d="M88.6452 77.8072C88.6362 77.8147 88.6278 77.8238 88.6273 77.8383C88.6329 77.8631 88.6543 77.8808 88.6714 77.9003C89.4901 78.827 90.3081 79.7537 91.1268 80.6804C91.1789 80.7389 91.1789 80.7389 91.2407 80.6892C93.9268 78.5182 96.6128 76.3479 99.2996 74.1769C99.3681 74.1216 99.3681 74.1216 99.3085 74.0541C97.021 71.4665 94.7333 68.8803 92.4457 66.2928C92.3938 66.2336 92.3938 66.2336 92.332 66.2832C91.3705 67.0609 90.4084 67.8384 89.4469 68.616C89.3784 68.6714 89.3784 68.6714 89.4361 68.7366C90.8643 70.3524 92.2933 71.9676 93.7215 73.5834C93.7843 73.6539 93.7843 73.6539 93.7098 73.7143C92.0388 75.0643 90.3677 76.415 88.6966 77.7649C88.6795 77.7788 88.6624 77.7926 88.6452 77.8072Z" fill="white"/>
<path d="M90.3448 73.7373C90.3516 73.7302 90.3565 73.7216 90.3605 73.7157C90.3539 73.6867 90.3344 73.6705 90.3192 73.6525C89.5088 72.6932 88.699 71.7346 87.8886 70.7753C87.8337 70.7103 87.8337 70.7103 87.7672 70.7665C86.8099 71.5764 85.8528 72.3856 84.8956 73.1955C84.8298 73.2511 84.8298 73.2518 84.8847 73.3168C85.6939 74.2746 86.5031 75.2318 87.3123 76.1896C87.3691 76.2569 87.3684 76.2568 87.4372 76.1987C88.3929 75.3901 89.3485 74.5821 90.3043 73.7735C90.3184 73.7615 90.3319 73.7501 90.3448 73.7373Z" fill="white"/>
<path d="M84.1336 82.1692C84.1187 82.1818 84.0997 82.1927 84.0943 82.2152C84.0977 82.2412 84.1179 82.2567 84.1337 82.2754C84.9448 83.2355 85.7559 84.1949 86.5669 85.155C86.6213 85.2192 86.6213 85.2192 86.6855 85.1649C87.6434 84.3551 88.6008 83.5438 89.5587 82.7339C89.6252 82.6777 89.6252 82.6777 89.5689 82.6112C88.7604 81.6548 87.9525 80.6978 87.1439 79.7414C87.0858 79.6726 87.0858 79.6726 87.0171 79.7307C86.1951 80.4263 85.3733 81.1205 84.5513 81.8161C84.4123 81.9336 84.2726 82.051 84.1336 82.1692Z" fill="white"/>
</g>
</g>
<mask id="mask2_95_6118" style="mask-type:luminance" maskUnits="userSpaceOnUse" x="-49" y="-3" width="333" height="259">
<path d="M-48.3493 -2.2467H283.744V255.818H-48.3493V-2.2467Z" fill="white"/>
</mask>
<g mask="url(#mask2_95_6118)">
<path d="M68.0271 127.402C80.8603 120.608 96.7959 125.512 103.59 138.345C110.384 151.178 105.48 167.114 92.6469 173.907C79.8138 180.701 63.8782 175.798 57.0843 162.965C50.2905 150.132 55.1939 134.196 68.0271 127.402Z" fill="url(#paint1_linear_95_6118)"/>
<path d="M80.337 130.591C91.4103 130.591 100.401 139.581 100.401 150.655C100.401 161.728 91.4103 170.719 80.337 170.719C69.2637 170.719 60.273 161.728 60.273 150.655C60.273 139.581 69.2637 130.591 80.337 130.591Z" fill="#17171C"/>
<mask id="mask3_95_6118" style="mask-type:luminance" maskUnits="userSpaceOnUse" x="72" y="142" width="17" height="19">
<path d="M72.0347 142.237H88.6394V160.226H72.0347V142.237Z" fill="white"/>
</mask>
<g mask="url(#mask3_95_6118)">
<path d="M74.1158 154.801C73.6308 156.609 73.1458 158.417 72.6608 160.226C77.6789 160.226 82.6983 160.226 87.7164 160.226C87.7323 160.134 87.742 160.042 87.7655 159.952C88.0513 158.879 88.3391 157.806 88.6394 156.685C85.5094 156.685 82.4147 156.685 79.3304 156.685C79.3137 156.62 79.2985 156.596 79.3034 156.577C79.6721 155.198 80.0388 153.818 80.4207 152.442C80.447 152.346 80.5771 152.247 80.6816 152.208C81.4578 151.916 82.2424 151.648 83.0159 151.35C83.1432 151.301 83.2788 151.154 83.3196 151.025C83.4822 150.512 83.6081 149.987 83.7479 149.467C83.8185 149.201 83.8897 148.935 83.9762 148.612C83.0131 148.957 82.1262 149.275 81.1693 149.618C81.8418 147.125 82.4977 144.691 83.1591 142.237C81.2606 142.237 79.3968 142.237 77.5218 142.237C77.4921 142.333 77.4616 142.421 77.4374 142.511C76.6556 145.391 75.8586 148.268 75.1086 151.157C74.9689 151.693 74.7468 152.004 74.196 152.144C73.7055 152.269 73.1043 152.367 72.7999 152.698C72.4858 153.04 72.4671 153.648 72.3246 154.141C72.2402 154.433 72.1647 154.729 72.0879 155.023C72.0665 155.106 72.0554 155.192 72.0347 155.303C72.757 155.051 73.4405 154.813 74.1753 154.557C74.1428 154.691 74.131 154.745 74.1158 154.801Z" fill="white"/>
</g>
</g>
<path d="M89.5875 202.745L146.102 167.645L145.473 166.633C144.21 164.595 141.535 163.971 139.498 165.235L86.668 198.047C85.3739 198.854 84.9733 200.558 85.7795 201.857C86.5853 203.152 88.2886 203.552 89.5875 202.745Z" fill="#3C37AC"/>
<mask id="mask4_95_6118" style="mask-type:luminance" maskUnits="userSpaceOnUse" x="-49" y="-3" width="333" height="259">
<path d="M-48.3493 -2.2467H283.744V255.818H-48.3493V-2.2467Z" fill="white"/>
</mask>
<g mask="url(#mask4_95_6118)">
<path d="M208.634 198.197C208.855 197.267 208.28 196.335 207.351 196.115C206.421 195.894 205.489 196.469 205.268 197.398C205.048 198.328 205.622 199.26 206.552 199.48C207.481 199.701 208.413 199.127 208.634 198.197Z" fill="#4664D7"/>
<path d="M214.861 198.802C215.082 197.873 214.507 196.941 213.577 196.72C212.648 196.499 211.716 197.074 211.495 198.004C211.274 198.933 211.849 199.865 212.779 200.086C213.708 200.307 214.64 199.732 214.861 198.802Z" fill="#4664D7"/>
<path d="M220.992 199.613C221.669 198.939 221.671 197.844 220.997 197.167C220.323 196.49 219.229 196.487 218.551 197.161C217.874 197.835 217.872 198.93 218.546 199.607C219.22 200.284 220.314 200.287 220.992 199.613Z" fill="#4664D7"/>
<path d="M27.9062 114.437C28.7908 114.076 29.215 113.067 28.8539 112.182C28.4928 111.297 27.4835 110.873 26.5989 111.234C25.7143 111.595 25.2901 112.605 25.6512 113.489C26.0123 114.374 27.0216 114.798 27.9062 114.437Z" fill="#4664D7"/>
<path d="M34.133 114.437C35.0176 114.076 35.4418 113.067 35.0807 112.182C34.7196 111.297 33.7102 110.873 32.8256 111.234C31.941 111.595 31.5168 112.605 31.8779 113.489C32.239 114.374 33.2484 114.798 34.133 114.437Z" fill="#4664D7"/>
<path d="M41.1013 114.508C41.7819 113.837 41.79 112.742 41.1195 112.062C40.4489 111.381 39.354 111.373 38.6734 112.043C37.9928 112.714 37.9847 113.809 38.6552 114.489C39.3258 115.17 40.4207 115.178 41.1013 114.508Z" fill="#4664D7"/>
</g>
<mask id="mask5_95_6118" style="mask-type:luminance" maskUnits="userSpaceOnUse" x="-49" y="-3" width="333" height="259">
<path d="M-48.3493 -2.2467H283.744V255.818H-48.3493V-2.2467Z" fill="white"/>
</mask>
<g mask="url(#mask5_95_6118)">
<path d="M24.6138 166.568C24.6137 165.98 25.0917 165.502 25.6798 165.502C26.2665 165.502 26.746 165.98 26.7461 166.568C26.7461 167.156 26.2681 167.634 25.68 167.634C25.0919 167.634 24.6138 167.156 24.6138 166.568ZM24.2962 166.568C24.2963 167.331 24.9176 167.952 25.6801 167.952C26.4425 167.952 27.0623 167.331 27.0636 166.568C27.0636 165.806 26.4422 165.184 25.6798 165.185C24.9173 165.185 24.2961 165.806 24.2962 166.568Z" fill="#4664D7"/>
<path d="M220.116 70.7456C220.116 69.4228 221.192 68.3468 222.514 68.3467C223.837 68.3466 224.913 69.4223 224.913 70.7451C224.913 72.068 223.838 73.1439 222.515 73.1441C221.192 73.1442 220.116 72.0685 220.116 70.7456ZM219.401 70.7457C219.401 72.4629 220.798 73.8589 222.515 73.8588C224.232 73.8586 225.628 72.4609 225.628 70.7451C225.628 69.0278 224.232 67.6318 222.514 67.632C220.797 67.6322 219.401 69.0285 219.401 70.7457Z" fill="#FC93A4"/>
<path d="M19.4753 38.9198C19.4752 37.597 20.5509 36.521 21.8737 36.5209C23.1966 36.5207 24.2725 37.5965 24.2727 38.9193C24.2728 40.2422 23.1971 41.3181 21.8742 41.3183C20.5514 41.3184 19.4754 40.2427 19.4753 38.9198ZM18.7606 38.9199C18.7608 40.6371 20.1571 42.0331 21.8743 42.033C23.5915 42.0328 24.9875 40.6364 24.9874 38.9192C24.9872 37.202 23.5909 35.806 21.8737 35.8062C20.1565 35.8064 18.7604 37.2027 18.7606 38.9199Z" fill="#4664D7"/>
<path d="M175.439 175.563C175.439 174.975 175.918 174.496 176.506 174.496C177.094 174.496 177.573 174.974 177.573 175.562C177.573 176.15 177.094 176.629 176.506 176.629C175.918 176.629 175.439 176.151 175.439 175.563ZM175.122 175.563C175.122 176.326 175.743 176.946 176.506 176.946C177.269 176.946 177.89 176.325 177.89 175.562C177.889 174.799 177.269 174.179 176.506 174.179C175.743 174.179 175.122 174.799 175.122 175.563Z" fill="#FC93A4"/>
<path d="M232.864 87.0049C232.863 86.4168 233.342 85.9387 233.93 85.9387C234.518 85.9386 234.997 86.4166 234.997 87.0047C234.997 87.5928 234.519 88.0709 233.93 88.071C233.342 88.071 232.864 87.593 232.864 87.0049ZM232.547 87.005C232.547 87.7681 233.167 88.3879 233.931 88.3878C234.694 88.3878 235.314 87.7664 235.314 87.0033C235.314 86.2402 234.693 85.6203 233.93 85.6204C233.167 85.6205 232.547 86.2418 232.547 87.005Z" fill="#4664D7"/>
</g>
<mask id="mask6_95_6118" style="mask-type:luminance" maskUnits="userSpaceOnUse" x="-49" y="-3" width="333" height="259">
<path d="M-48.3493 -2.2467H283.744V255.818H-48.3493V-2.2467Z" fill="white"/>
</mask>
<g mask="url(#mask6_95_6118)">
<path d="M150.686 21.4878C163.172 14.8763 178.677 19.6456 185.289 32.1312C191.9 44.6168 187.131 60.1222 174.645 66.7338C162.16 73.3453 146.654 68.576 140.043 56.0904C133.431 43.6048 138.201 28.0994 150.686 21.4878Z" fill="url(#paint2_linear_95_6118)"/>
<mask id="mask7_95_6118" style="mask-type:luminance" maskUnits="userSpaceOnUse" x="-49" y="-3" width="333" height="259">
<path d="M-48.3493 -2.2467H283.744V255.818H-48.3493V-2.2467Z" fill="white"/>
</mask>
<g mask="url(#mask7_95_6118)">
<path d="M162.664 24.738C173.356 24.7368 182.038 33.4166 182.039 44.1081C182.04 54.7996 173.36 63.4811 162.669 63.4822C151.977 63.4834 143.296 54.8036 143.294 44.1121C143.293 33.4206 151.973 24.7391 162.664 24.738Z" fill="#17171C"/>
<path d="M161.284 55.1783C161.321 55.2412 161.343 55.3119 161.371 55.3789C161.386 55.3802 161.401 55.3814 161.415 55.382C161.446 55.3409 161.475 55.2976 161.508 55.2581C164.115 52.1471 166.722 49.0368 169.328 45.9258C169.397 45.8442 169.464 45.7597 169.531 45.6766C169.439 45.6805 169.373 45.7102 169.308 45.7414C166.868 46.9119 164.427 48.081 161.988 49.2558C161.84 49.3271 161.737 49.3335 161.595 49.2274C159.486 47.6614 157.373 46.1039 155.26 44.5444C155.21 44.5074 155.155 44.4784 155.057 44.4171C155.124 44.5389 155.162 44.6116 155.203 44.6818C157.23 48.1805 159.258 51.6791 161.284 55.1783Z" fill="white"/>
<path d="M169.215 44.1731C167.256 40.0721 165.303 35.9834 163.338 31.8672C160.688 35.596 158.06 39.2947 155.427 43C155.485 43.046 155.519 43.0739 155.554 43.0998C157.596 44.6129 159.638 46.124 161.676 47.6416C161.797 47.7319 161.886 47.7257 162.012 47.6643C164.358 46.5287 166.706 45.3981 169.053 44.2654C169.104 44.2406 169.152 44.2094 169.215 44.1731Z" fill="white"/>
</g>
</g>
<mask id="mask8_95_6118" style="mask-type:luminance" maskUnits="userSpaceOnUse" x="-49" y="-3" width="333" height="217">
<path d="M-48.3493 -2.2467H283.744V213.282H-48.3493V-2.2467Z" fill="white"/>
</mask>
<g mask="url(#mask8_95_6118)">
<path d="M164.813 83.3199C184.43 80.2534 202.848 93.6914 205.914 113.309C208.981 132.926 195.543 151.344 175.925 154.41C156.308 157.477 137.89 144.039 134.824 124.421C131.757 104.804 145.195 86.3864 164.813 83.3199Z" fill="url(#paint3_linear_95_6118)"/>
<path d="M177.564 92.3579C192.277 96.4578 200.894 111.732 196.794 126.445C192.694 141.158 177.419 149.775 162.706 145.675C147.993 141.576 139.376 126.301 143.476 111.588C147.576 96.8749 162.851 88.2579 177.564 92.3579Z" fill="#17171C"/>
<mask id="mask9_95_6118" style="mask-type:luminance" maskUnits="userSpaceOnUse" x="157" y="102" width="28" height="33">
<path d="M165.244 102.184L184.947 107.674L177.398 134.766L157.695 129.275L165.244 102.184Z" fill="white"/>
</mask>
<g mask="url(#mask9_95_6118)">
<path d="M170.099 116.264C170.075 116.257 170.053 116.243 170.023 116.229C170.401 114.873 170.777 113.521 171.16 112.146C171.219 112.162 171.273 112.177 171.327 112.192C173.061 112.675 174.795 113.156 176.528 113.643C177.647 113.957 178.331 114.92 178.207 115.991C178.06 117.266 176.803 118.105 175.486 117.758C173.684 117.282 171.894 116.764 170.099 116.264ZM167.907 124.469C167.856 124.455 167.806 124.441 167.739 124.423C168.156 122.928 168.567 121.454 168.982 119.965C169.039 119.981 169.089 119.995 169.139 120.009C170.882 120.495 172.626 120.98 174.369 121.467C175.754 121.853 176.497 123.19 176.06 124.501C175.708 125.557 174.502 126.222 173.37 125.98C173.194 125.943 173.021 125.894 172.848 125.845C171.201 125.387 169.553 124.928 167.907 124.469ZM169.813 132.652C170.127 131.526 170.438 130.41 170.754 129.276C171.228 129.408 171.673 129.545 172.127 129.654C172.501 129.744 172.881 129.84 173.263 129.868C175.732 130.052 177.732 129.204 179.106 127.242C180.485 125.274 180.557 123.147 179.475 120.965C179.451 120.915 179.426 120.866 179.4 120.814C179.446 120.784 179.484 120.758 179.523 120.733C181.073 119.707 181.973 118.288 182.192 116.471C182.483 114.052 181.161 111.622 178.916 110.459C178.497 110.242 178.043 110.085 177.593 109.933C177.159 109.786 176.71 109.682 176.247 109.553C176.563 108.419 176.875 107.299 177.187 106.178C176.318 105.936 175.47 105.7 174.601 105.457C174.286 106.587 173.974 107.707 173.664 108.82C172.948 108.621 172.252 108.427 171.543 108.229C171.857 107.101 172.168 105.985 172.48 104.864C171.616 104.623 170.767 104.386 169.897 104.144C169.583 105.272 169.271 106.391 168.956 107.523C167.337 107.072 165.738 106.627 164.135 106.18C163.788 107.425 163.445 108.656 163.098 109.904C164.495 110.294 165.88 110.68 167.268 111.066C166.127 115.162 164.99 119.241 163.847 123.341C162.45 122.951 161.062 122.565 159.673 122.177C159.325 123.427 158.982 124.656 158.635 125.903C160.247 126.352 161.849 126.798 163.466 127.249C163.15 128.383 162.839 129.499 162.527 130.619C163.393 130.861 164.246 131.098 165.113 131.34C165.427 130.212 165.738 129.096 166.051 127.974C166.761 128.172 167.457 128.366 168.172 128.565C167.858 129.692 167.546 130.811 167.233 131.933C168.101 132.175 168.95 132.412 169.813 132.652Z" fill="white"/>
</g>
</g>
</g>
<defs>
<linearGradient id="paint0_linear_95_6118" x1="89.2154" y1="107.159" x2="98.3155" y2="17.076" gradientUnits="userSpaceOnUse">
<stop stop-color="#CF8170"/>
<stop offset="0.5" stop-color="#E7B37E"/>
<stop offset="1" stop-color="#FFE68C"/>
</linearGradient>
<linearGradient id="paint1_linear_95_6118" x1="64.9844" y1="188.552" x2="87.8839" y2="108.678" gradientUnits="userSpaceOnUse">
<stop stop-color="#CFB470"/>
<stop offset="0.5" stop-color="#BE99A7"/>
<stop offset="1" stop-color="#AE7EDD"/>
</linearGradient>
<linearGradient id="paint2_linear_95_6118" x1="147.732" y1="80.9855" x2="170.005" y2="3.26741" gradientUnits="userSpaceOnUse">
<stop stop-color="#8C6DE8"/>
<stop offset="0.5" stop-color="#85A5DD"/>
<stop offset="1" stop-color="#7EDED2"/>
</linearGradient>
<linearGradient id="paint3_linear_95_6118" x1="132.602" y1="124.769" x2="208.136" y2="112.962" gradientUnits="userSpaceOnUse">
<stop stop-color="#CF8170"/>
<stop offset="0.12" stop-color="#BE80A7"/>
<stop offset="0.24" stop-color="#AE7EDD"/>
<stop offset="0.37" stop-color="#9571E4"/>
<stop offset="0.49" stop-color="#7B64EC"/>
<stop offset="0.54" stop-color="#7167ED"/>
<stop offset="0.6" stop-color="#666AEE"/>
<stop offset="0.67" stop-color="#596EEF"/>
<stop offset="0.74" stop-color="#4C72F0"/>
<stop offset="0.87" stop-color="#3B86E5"/>
<stop offset="1" stop-color="#2A9BDA"/>
</linearGradient>
<clipPath id="clip0_95_6118">
<rect width="250.323" height="200" fill="white" transform="translate(0.838715 0.378418)"/>
</clipPath>
</defs>
</svg>
