<svg width="41" height="35" viewBox="0 0 41 35" fill="none" xmlns="http://www.w3.org/2000/svg">
<rect width="40.25" height="35" rx="17.5" fill="#343438"/>
<path opacity="0.4" d="M15.491 18.2793C15.0394 18.2793 14.6738 18.6503 14.6738 19.1086L14.4485 23.115C14.4485 23.6991 14.9154 24.172 15.491 24.172C16.0665 24.172 16.5324 23.6991 16.5324 23.115L16.3081 19.1086C16.3081 18.6503 15.9426 18.2793 15.491 18.2793Z" fill="white"/>
<path d="M16.6083 10.2143C16.6083 10.2143 16.3738 9.97316 16.2284 9.86819C16.0174 9.70606 15.7573 9.625 15.4983 9.625C15.2074 9.625 14.9371 9.71646 14.7169 9.88897C14.677 9.92951 14.507 10.0823 14.3667 10.2247C13.486 11.0571 12.0452 13.2302 11.6049 14.3682C11.5352 14.5407 11.3847 14.9772 11.3755 15.2111C11.3755 15.4335 11.4246 15.6476 11.525 15.8502C11.6653 16.1038 11.8855 16.3075 12.1456 16.4187C12.3258 16.4904 12.8655 16.6016 12.8757 16.6016C13.4666 16.7139 14.4271 16.7741 15.488 16.7741C16.4987 16.7741 17.4193 16.7139 18.0194 16.6224C18.0297 16.612 18.6994 16.5008 18.9298 16.3782C19.3497 16.1547 19.6108 15.7182 19.6108 15.2516V15.2111C19.6005 14.9066 19.3394 14.2664 19.3302 14.2664C18.8899 13.1897 17.5187 11.0675 16.6083 10.2143Z" fill="white"/>
<path opacity="0.4" d="M24.7573 16.7209C25.2089 16.7209 25.5745 16.3499 25.5745 15.8916L25.7988 11.8851C25.7988 11.301 25.3328 10.8281 24.7573 10.8281C24.1818 10.8281 23.7148 11.301 23.7148 11.8851L23.9401 15.8916C23.9401 16.3499 24.3057 16.7209 24.7573 16.7209Z" fill="white"/>
<path d="M28.7249 19.1495C28.5847 18.8959 28.3645 18.6933 28.1044 18.581C27.9241 18.5093 27.3835 18.3981 27.3742 18.3981C26.7834 18.2859 25.8228 18.2256 24.7619 18.2256C23.7512 18.2256 22.8306 18.2859 22.2305 18.3773C22.2203 18.3877 21.5506 18.5 21.3201 18.6216C20.8993 18.845 20.6392 19.2815 20.6392 19.7492V19.7897C20.6494 20.0942 20.9095 20.7334 20.9197 20.7334C21.3601 21.8101 22.7302 23.9334 23.6416 24.7856C23.6416 24.7856 23.8761 25.0267 24.0215 25.1306C24.2315 25.2938 24.4916 25.3749 24.7527 25.3749C25.0425 25.3749 25.3118 25.2834 25.533 25.1109C25.573 25.0704 25.743 24.9176 25.8832 24.7762C26.7629 23.9427 28.2047 21.7696 28.644 20.6326C28.7147 20.4601 28.8652 20.0225 28.8745 19.7897C28.8745 19.5663 28.8253 19.3522 28.7249 19.1495Z" fill="white"/>
<rect x="0.4375" y="0.4375" width="39.375" height="34.125" rx="17.0625" stroke="#4E4E4E" stroke-opacity="0.2" stroke-width="0.875"/>
</svg>
