<svg width="24" height="24" viewBox="0 0 24 24" fill="none" xmlns="http://www.w3.org/2000/svg">
<path fill-rule="evenodd" clip-rule="evenodd" d="M10.7792 1.6522C11.3231 1.74811 11.6863 2.26678 11.5903 2.81067L11.4166 3.79601L13.3867 4.14342L13.5608 3.15805C13.6569 2.61419 14.1756 2.25118 14.7195 2.34725C15.2634 2.44333 15.6264 2.9621 15.5303 3.50596L15.3417 4.57365C16.3359 4.93388 17.1004 5.54461 17.6117 6.31392C18.2684 7.30195 18.4616 8.48279 18.2692 9.57353C18.0769 10.6643 17.4915 11.7078 16.5366 12.4116C16.376 12.53 16.2068 12.6374 16.0296 12.733C16.1631 12.8832 16.285 13.0416 16.3952 13.2075C17.0517 14.1956 17.2447 15.3764 17.0523 16.4671C16.8599 17.5578 16.2745 18.6013 15.3196 19.3052C14.5765 19.853 13.6498 20.1654 12.593 20.1643L12.4055 21.232C12.3099 21.776 11.7915 22.1395 11.2476 22.0439C10.7036 21.9484 10.3401 21.43 10.4356 20.886L10.6088 19.9002L8.63806 19.5526L8.46435 20.5377C8.36844 21.0816 7.84977 21.4447 7.30588 21.3488C6.76199 21.2529 6.39883 20.7342 6.49474 20.1903L6.66847 19.2051L5.68582 19.0318C5.14194 18.9359 4.7788 18.4172 4.87475 17.8733C4.97069 17.3294 5.48937 16.9663 6.03326 17.0622L7.01594 17.2356L9.09981 5.41832L8.11588 5.24481C7.57199 5.1489 7.20883 4.63024 7.30474 4.08635C7.40065 3.54245 7.91931 3.17929 8.4632 3.2752L9.44698 3.44868L9.62074 2.46335C9.71665 1.91945 10.2353 1.55629 10.7792 1.6522ZM11.0694 5.76564L10.2019 10.6896L13.157 11.2102C14.1436 11.3843 14.8605 11.1624 15.35 10.8017C15.854 10.4302 16.1881 9.85888 16.2996 9.22624C16.4112 8.5936 16.2927 7.9425 15.946 7.42094C15.6112 6.91721 15.0183 6.46565 14.0409 6.28966C14.0351 6.28875 14.0294 6.28778 14.0236 6.28676C14.0175 6.28568 14.0114 6.28455 14.0054 6.28337L11.0694 5.76564ZM9.85457 12.6593L12.7906 13.1764C12.7966 13.1776 12.8027 13.1787 12.8087 13.1798C13.7954 13.3539 14.3928 13.8077 14.7294 14.3142C15.0759 14.8359 15.1943 15.487 15.0827 16.1197C14.9711 16.7523 14.6371 17.3237 14.1329 17.6953C13.6434 18.0561 12.9268 18.2781 11.9403 18.1042C11.9402 18.1042 11.9403 18.1042 11.9403 18.1042L8.98553 17.583L9.85457 12.6593Z" fill="url(#paint0_linear_2463_3821)"/>
<defs>
<linearGradient id="paint0_linear_2463_3821" x1="4.85938" y1="1.63684" x2="23.6383" y2="14.0327" gradientUnits="userSpaceOnUse">
<stop stop-color="#FD6E6A"/>
<stop offset="1" stop-color="#FFC600"/>
</linearGradient>
</defs>
</svg>
