<svg width="1440" height="306" viewBox="0 0 1440 306" fill="none" xmlns="http://www.w3.org/2000/svg">
<g opacity="0.7">
<path d="M1762.5 153C1762.5 163.315 1755.35 173.497 1741.46 183.428C1727.58 193.347 1707.08 202.936 1680.64 212.082C1627.75 230.372 1551.19 246.851 1456.56 260.693C1267.3 288.376 1005.83 305.5 717 305.5C428.172 305.5 166.697 288.376 -22.5613 260.693C-117.194 246.851 -193.75 230.372 -246.637 212.082C-273.083 202.936 -293.581 193.347 -307.458 183.428C-321.351 173.497 -328.5 163.315 -328.5 153C-328.5 142.685 -321.351 132.503 -307.458 122.572C-293.581 112.653 -273.083 103.064 -246.637 93.918C-193.75 75.6285 -117.194 59.1495 -22.5613 45.3074C166.697 17.6243 428.172 0.5 717 0.5C1005.83 0.5 1267.3 17.6243 1456.56 45.3074C1551.19 59.1495 1627.75 75.6285 1680.64 93.918C1707.08 103.064 1727.58 112.653 1741.46 122.572C1755.35 132.503 1762.5 142.685 1762.5 153Z" stroke="#7E7E7E" stroke-opacity="0.58"/>
<path d="M1616.5 153C1616.5 161.814 1610.37 170.531 1598.43 179.047C1586.49 187.551 1568.86 195.775 1546.11 203.621C1500.61 219.31 1434.75 233.447 1353.32 245.322C1190.49 269.071 965.512 283.762 717 283.762C468.488 283.762 243.514 269.071 80.6761 245.322C-0.74649 233.447 -66.6117 219.31 -112.111 203.621C-134.863 195.775 -152.493 187.551 -164.425 179.047C-176.373 170.531 -182.5 161.814 -182.5 153C-182.5 144.186 -176.373 135.469 -164.425 126.953C-152.493 118.449 -134.863 110.225 -112.111 102.38C-66.6117 86.6906 -0.74649 72.5536 80.6761 60.6784C243.514 36.929 468.488 22.2378 717 22.2378C965.512 22.2378 1190.49 36.929 1353.32 60.6784C1434.75 72.5536 1500.61 86.6906 1546.11 102.38C1568.86 110.225 1586.49 118.449 1598.43 126.953C1610.37 135.469 1616.5 144.186 1616.5 153Z" stroke="#7E7E7E" stroke-opacity="0.58"/>
<path d="M1513.5 153C1513.5 160.834 1508.09 168.593 1497.52 176.183C1486.96 183.762 1471.35 191.093 1451.2 198.088C1410.92 212.077 1352.59 224.682 1280.49 235.272C1136.29 256.449 937.069 269.549 717 269.549C496.931 269.549 297.706 256.449 153.509 235.272C81.4058 224.682 23.0828 212.077 -17.2038 198.088C-37.3502 191.093 -52.9564 183.762 -63.5163 176.183C-74.0917 168.593 -79.5 160.834 -79.5 153C-79.5 145.166 -74.0917 137.407 -63.5163 129.817C-52.9564 122.238 -37.3502 114.907 -17.2038 107.912C23.0828 93.9232 81.4058 81.3176 153.509 70.7284C297.706 49.5512 496.931 36.4508 717 36.4508C937.069 36.4508 1136.29 49.5512 1280.49 70.7284C1352.59 81.3176 1410.92 93.9232 1451.2 107.912C1471.35 114.907 1486.96 122.238 1497.52 129.817C1508.09 137.407 1513.5 145.166 1513.5 153Z" stroke="#7E7E7E" stroke-opacity="0.58"/>
<path d="M1400.5 153C1400.5 159.62 1395.89 166.196 1386.81 172.644C1377.76 179.08 1364.37 185.309 1347.09 191.254C1312.52 203.142 1262.47 213.856 1200.59 222.857C1076.84 240.857 905.865 251.992 717 251.992C528.135 251.992 357.16 240.857 233.411 222.857C171.533 213.856 121.483 203.142 86.9147 191.254C69.6271 185.309 56.2408 179.08 47.1861 172.644C38.115 166.196 33.5 159.62 33.5 153C33.5 146.38 38.115 139.804 47.1861 133.356C56.2408 126.92 69.6271 120.691 86.9147 114.746C121.483 102.858 171.533 92.144 233.411 83.1434C357.16 65.1434 528.135 54.0082 717 54.0082C905.865 54.0082 1076.84 65.1434 1200.59 83.1434C1262.47 92.144 1312.52 102.858 1347.09 114.746C1364.37 120.691 1377.76 126.92 1386.81 133.356C1395.89 139.804 1400.5 146.38 1400.5 153Z" stroke="#7E7E7E" stroke-opacity="0.58"/>
<path d="M1265.5 153C1265.5 158.294 1261.83 163.573 1254.56 168.769C1247.3 173.953 1236.57 178.974 1222.69 183.769C1194.96 193.356 1154.79 201.999 1105.13 209.259C1005.81 223.779 868.586 232.762 717 232.762C565.414 232.762 428.19 223.779 328.871 209.259C279.207 201.999 239.044 193.356 211.306 183.769C197.435 178.974 186.701 173.953 179.444 168.769C172.172 163.573 168.5 158.294 168.5 153C168.5 147.706 172.172 142.427 179.444 137.231C186.701 132.047 197.435 127.026 211.306 122.231C239.044 112.643 279.207 104.001 328.871 96.7407C428.19 82.2205 565.414 73.2377 717 73.2377C868.586 73.2377 1005.81 82.2205 1105.13 96.7407C1154.79 104.001 1194.96 112.643 1222.69 122.231C1236.57 127.026 1247.3 132.047 1254.56 137.231C1261.83 142.427 1265.5 147.706 1265.5 153Z" stroke="#7E7E7E" stroke-opacity="0.58"/>
<path d="M1144.5 153C1144.5 157.082 1141.67 161.178 1136.01 165.231C1130.37 169.272 1122.01 173.191 1111.2 176.935C1089.59 184.422 1058.28 191.172 1019.57 196.844C942.147 208.187 835.172 215.205 717 215.205C598.828 215.205 491.853 208.187 414.431 196.844C375.716 191.172 344.412 184.422 322.798 176.935C311.988 173.191 303.631 169.272 297.987 165.231C292.326 161.178 289.5 157.082 289.5 153C289.5 148.918 292.326 144.822 297.987 140.769C303.631 136.728 311.988 132.809 322.798 129.065C344.412 121.578 375.716 114.828 414.431 109.156C491.853 97.8127 598.828 90.795 717 90.795C835.172 90.795 942.147 97.8127 1019.57 109.156C1058.28 114.828 1089.59 121.578 1111.2 129.065C1122.01 132.809 1130.37 136.728 1136.01 140.769C1141.67 144.822 1144.5 148.918 1144.5 153Z" stroke="#7E7E7E" stroke-opacity="0.58"/>
<path d="M1035.5 153C1035.5 155.986 1033.44 159.011 1029.23 162.029C1025.04 165.037 1018.82 167.958 1010.77 170.752C994.669 176.338 971.347 181.377 942.494 185.612C884.798 194.08 805.073 199.32 717 199.32C628.927 199.32 549.202 194.08 491.506 185.612C462.653 181.377 439.331 176.338 423.233 170.752C415.18 167.958 408.965 165.037 404.772 162.029C400.564 159.011 398.5 155.986 398.5 153C398.5 150.014 400.564 146.989 404.772 143.97C408.965 140.963 415.18 138.042 423.233 135.248C439.331 129.662 462.653 124.623 491.506 120.388C549.202 111.92 628.927 106.68 717 106.68C805.073 106.68 884.798 111.92 942.494 120.388C971.347 124.623 994.669 129.662 1010.77 135.248C1018.82 138.042 1025.04 140.963 1029.23 143.97C1033.44 146.989 1035.5 150.014 1035.5 153Z" stroke="#7E0606" stroke-opacity="0.9"/>
<path d="M932.5 153C932.5 154.947 931.156 156.958 928.32 158.997C925.499 161.024 921.308 163 915.861 164.894C904.975 168.68 889.195 172.097 869.662 174.97C830.605 180.715 776.63 184.27 717 184.27C657.37 184.27 603.395 180.715 564.338 174.97C544.805 172.097 529.025 168.68 518.139 164.894C512.692 163 508.501 161.024 505.68 158.997C502.844 156.958 501.5 154.947 501.5 153C501.5 151.053 502.844 149.042 505.68 147.003C508.501 144.976 512.692 143 518.139 141.106C529.025 137.32 544.805 133.902 564.338 131.03C603.395 125.285 657.37 121.729 717 121.729C776.63 121.729 830.605 125.285 869.662 131.03C889.195 133.902 904.975 137.32 915.861 141.106C921.308 143 925.499 144.976 928.32 147.003C931.156 149.042 932.5 151.053 932.5 153Z" stroke="#7E7E7E" stroke-opacity="0.58"/>
<path d="M855.5 153C855.5 154.135 854.7 155.357 852.888 156.635C851.093 157.902 848.414 159.143 844.915 160.337C837.925 162.723 827.782 164.88 815.216 166.694C790.093 170.32 755.368 172.566 717 172.566C678.632 172.566 643.907 170.32 618.784 166.694C606.218 164.88 596.075 162.723 589.085 160.337C585.586 159.143 582.907 157.902 581.112 156.635C579.3 155.357 578.5 154.135 578.5 153C578.5 151.865 579.3 150.643 581.112 149.365C582.907 148.098 585.586 146.857 589.085 145.663C596.075 143.277 606.218 141.12 618.784 139.306C643.907 135.68 678.632 133.434 717 133.434C755.368 133.434 790.093 135.68 815.216 139.306C827.782 141.12 837.925 143.277 844.915 145.663C848.414 146.857 851.093 148.098 852.888 149.365C854.7 150.643 855.5 151.865 855.5 153Z" stroke="#7E7E7E" stroke-opacity="0.58"/>
<path d="M796.5 153C796.5 153.115 796.447 153.282 796.228 153.506C796.009 153.733 795.655 153.98 795.147 154.24C794.133 154.758 792.605 155.272 790.593 155.769C786.578 156.761 780.747 157.659 773.517 158.415C759.062 159.925 739.08 160.861 717 160.861C694.92 160.861 674.938 159.925 660.483 158.415C653.253 157.659 647.422 156.761 643.407 155.769C641.395 155.272 639.867 154.758 638.853 154.24C638.345 153.98 637.991 153.733 637.772 153.506C637.553 153.282 637.5 153.115 637.5 153C637.5 152.885 637.553 152.718 637.772 152.494C637.991 152.267 638.345 152.02 638.853 151.76C639.867 151.242 641.395 150.728 643.407 150.231C647.422 149.239 653.253 148.341 660.483 147.585C674.938 146.075 694.92 145.139 717 145.139C739.08 145.139 759.062 146.075 773.517 147.585C780.747 148.341 786.578 149.239 790.593 150.231C792.605 150.728 794.133 151.242 795.147 151.76C795.655 152.02 796.009 152.267 796.228 152.494C796.447 152.718 796.5 152.885 796.5 153Z" stroke="#7E7E7E" stroke-opacity="0.58"/>
</g>
</svg>
