<svg width="25" height="24" viewBox="0 0 25 24" fill="none" xmlns="http://www.w3.org/2000/svg">
<path d="M22.26 15.92L15.86 4.4C15 2.85 13.81 2 12.5 2C11.19 2 9.99998 2.85 9.13998 4.4L2.73998 15.92C1.92998 17.39 1.83998 18.8 2.48998 19.91C3.13998 21.02 4.41998 21.63 6.09998 21.63H18.9C20.58 21.63 21.86 21.02 22.51 19.91C23.16 18.8 23.07 17.38 22.26 15.92ZM11.75 9C11.75 8.59 12.09 8.25 12.5 8.25C12.91 8.25 13.25 8.59 13.25 9V14C13.25 14.41 12.91 14.75 12.5 14.75C12.09 14.75 11.75 14.41 11.75 14V9ZM13.21 17.71C13.16 17.75 13.11 17.79 13.06 17.83C13 17.87 12.94 17.9 12.88 17.92C12.82 17.95 12.76 17.97 12.69 17.98C12.63 17.99 12.56 18 12.5 18C12.44 18 12.37 17.99 12.3 17.98C12.24 17.97 12.18 17.95 12.12 17.92C12.06 17.9 12 17.87 11.94 17.83C11.89 17.79 11.84 17.75 11.79 17.71C11.61 17.52 11.5 17.26 11.5 17C11.5 16.74 11.61 16.48 11.79 16.29C11.84 16.25 11.89 16.21 11.94 16.17C12 16.13 12.06 16.1 12.12 16.08C12.18 16.05 12.24 16.03 12.3 16.02C12.43 15.99 12.57 15.99 12.69 16.02C12.76 16.03 12.82 16.05 12.88 16.08C12.94 16.1 13 16.13 13.06 16.17C13.11 16.21 13.16 16.25 13.21 16.29C13.39 16.48 13.5 16.74 13.5 17C13.5 17.26 13.39 17.52 13.21 17.71Z" fill="#DF1111"/>
</svg>
