<svg width="150" height="151" viewBox="0 0 150 151" fill="none" xmlns="http://www.w3.org/2000/svg">
<g clip-path="url(#clip0_103_5516)">
<path fill-rule="evenodd" clip-rule="evenodd" d="M74.7066 0.973633C89.5402 0.973633 104.041 5.37231 116.374 13.6134C128.708 21.8545 138.321 33.5679 143.998 47.2724C149.674 60.9768 151.159 76.0568 148.266 90.6054C145.372 105.154 138.229 118.518 127.74 129.007C117.251 139.496 103.887 146.639 89.3384 149.533C74.7898 152.426 59.7098 150.941 46.0054 145.265C32.3009 139.588 20.5875 129.975 12.3464 117.641C4.10531 105.308 -0.293365 90.8072 -0.293365 75.9736C-0.293365 56.0824 7.6084 37.0059 21.6736 22.9406C35.7389 8.8754 54.8154 0.973633 74.7066 0.973633V0.973633Z" fill="white"/>
<path fill-rule="evenodd" clip-rule="evenodd" d="M74.707 17.0784L94.4388 46.5602L114.171 76.0488L74.707 95.9306L35.2433 75.9738L54.9751 46.4852L74.707 17.0784ZM74.707 103.874L37.432 83.9852L74.707 134.869L111.982 83.9852L74.707 103.874Z" fill="#343434"/>
<path fill-rule="evenodd" clip-rule="evenodd" d="M74.7066 17.0784L94.4385 46.4852L114.17 75.9738L74.7066 61.0761V17.0784Z" fill="#343434"/>
<path fill-rule="evenodd" clip-rule="evenodd" d="M74.7066 103.874L112.057 83.9851L74.7066 134.944V103.874Z" fill="#313131"/>
<path fill-rule="evenodd" clip-rule="evenodd" d="M74.7066 61.0758L114.17 75.9735L74.7066 95.8554V61.0758Z" fill="#151515"/>
<path fill-rule="evenodd" clip-rule="evenodd" d="M74.707 17.0784L54.9751 46.4852L35.2433 75.9738L74.707 61.0761V17.0784Z" fill="#8C8C8C"/>
<path fill-rule="evenodd" clip-rule="evenodd" d="M74.7066 103.874L37.4316 83.9851L74.7066 134.944V103.874Z" fill="#8A8A8A"/>
<path fill-rule="evenodd" clip-rule="evenodd" d="M74.707 61.0758L35.2433 75.9735L74.707 95.8554V61.0758Z" fill="#353535"/>
</g>
<defs>
<clipPath id="clip0_103_5516">
<rect width="150" height="150" fill="white" transform="translate(0 0.973633)"/>
</clipPath>
</defs>
</svg>
