<svg width="66" height="66" viewBox="0 0 66 66" fill="none" xmlns="http://www.w3.org/2000/svg">
<rect x="5" y="5" width="56" height="56" rx="28" fill="#E0E0E0"/>
<path d="M37.0833 27.75L41.1666 23.6666M43.5 21.3333L41.1666 23.6666L43.5 21.3333ZM32.2883 32.545C32.8907 33.1394 33.3696 33.847 33.6973 34.6272C34.0251 35.4074 34.1953 36.2448 34.1982 37.091C34.201 37.9373 34.0364 38.7758 33.7139 39.5582C33.3913 40.3406 32.9172 41.0514 32.3188 41.6498C31.7204 42.2482 31.0095 42.7223 30.2271 43.0449C29.4448 43.3674 28.6063 43.532 27.76 43.5292C26.9138 43.5263 26.0764 43.3561 25.2962 43.0284C24.516 42.7006 23.8083 42.2217 23.214 41.6193C22.0451 40.4091 21.3983 38.7883 21.413 37.1058C21.4276 35.4234 22.1024 33.814 23.2921 32.6243C24.4818 31.4346 26.0912 30.7598 27.7736 30.7452C29.4561 30.7305 31.0769 31.3773 32.2871 32.5461L32.2883 32.545ZM32.2883 32.545L37.0833 27.75L32.2883 32.545ZM37.0833 27.75L40.5833 31.25L44.6666 27.1666L41.1666 23.6666L37.0833 27.75Z" stroke="black" stroke-width="2.33333" stroke-linecap="round" stroke-linejoin="round"/>
<rect x="5" y="5" width="56" height="56" rx="28" stroke="#F3F3F3" stroke-width="10"/>
</svg>
