<svg width="60" height="54" viewBox="0 0 60 54" fill="none" xmlns="http://www.w3.org/2000/svg">
<g clip-path="url(#clip0_132_5087)">
<path d="M9.75479 53.7351H38.136C39.4394 53.7351 40.5326 52.6839 40.5326 51.3385V22.9572C40.5326 21.6538 39.4815 20.5606 38.136 20.5606H9.75479C8.45136 20.5606 7.35815 21.6118 7.35815 22.9572V51.3385C7.35815 52.6839 8.40931 53.7351 9.75479 53.7351Z" fill="#C7CAE6"/>
<path d="M5.42379 51.1703H43.5597C45.1154 51.1703 46.3768 49.9089 46.3768 48.3532V18.9628C46.3768 17.4071 45.1154 16.1458 43.5597 16.1458H5.42379C3.86808 16.1458 2.60669 17.4071 2.60669 18.9628V48.3532C2.60669 49.9089 3.86808 51.1703 5.42379 51.1703Z" fill="#717EBD"/>
<path d="M56.9729 6.05466C58.6448 6.05466 60.0002 4.69928 60.0002 3.02733C60.0002 1.35538 58.6448 0 56.9729 0C55.3009 0 53.9456 1.35538 53.9456 3.02733C53.9456 4.69928 55.3009 6.05466 56.9729 6.05466Z" fill="#717EBD"/>
<path d="M3.02733 48.8157H46.9657C48.6475 48.8157 49.993 47.4702 49.993 45.7883V16.8185C49.993 15.1366 48.6475 13.7911 46.9657 13.7911H3.02733C1.34548 13.7911 0 15.1366 0 16.8185V45.7883C0 47.4702 1.34548 48.8157 3.02733 48.8157Z" fill="#FDE4CA"/>
<path d="M11.5205 32.4177L19.257 25.438L24.5128 30.2313L35.1925 22.1584" stroke="white" stroke-width="4" stroke-miterlimit="10"/>
<path d="M25.4801 37.5473H18.3323V40.6587H25.4801V37.5473Z" fill="#F8B775"/>
<path d="M32.6281 34.8984H25.4802V40.6587H32.6281V34.8984Z" fill="#F8B775"/>
<path d="M39.6498 30.8619H32.502V40.6167H39.6498V30.8619Z" fill="#F8B775"/>
<path d="M18.3324 39.5656H11.1846V40.6588H18.3324V39.5656Z" fill="#F8B775"/>
<path d="M35.6554 23.7982C36.8629 23.7982 37.8418 22.8193 37.8418 21.6118C37.8418 20.4043 36.8629 19.4254 35.6554 19.4254C34.4479 19.4254 33.469 20.4043 33.469 21.6118C33.469 22.8193 34.4479 23.7982 35.6554 23.7982Z" fill="white"/>
</g>
<defs>
<clipPath id="clip0_132_5087">
<rect width="60" height="53.7351" fill="white"/>
</clipPath>
</defs>
</svg>
