<svg width="60" height="63" viewBox="0 0 60 63" fill="none" xmlns="http://www.w3.org/2000/svg">
<g clip-path="url(#clip0_130_5017)">
<path d="M24.6872 52.6519C38.3216 52.6519 49.3745 41.5991 49.3745 27.9647C49.3745 14.3303 38.3216 3.27747 24.6872 3.27747C11.0528 3.27747 0 14.3303 0 27.9647C0 41.5991 11.0528 52.6519 24.6872 52.6519Z" fill="#FDE4CA"/>
<path d="M56.1411 7.61233C58.2432 7.61233 59.9473 5.90826 59.9473 3.80617C59.9473 1.70408 58.2432 0 56.1411 0C54.039 0 52.335 1.70408 52.335 3.80617C52.335 5.90826 54.039 7.61233 56.1411 7.61233Z" fill="#717EBD"/>
<path d="M43.4535 28.1233C43.4535 17.7092 34.9425 9.30394 24.5284 9.46254C14.22 9.62113 5.92043 18.2379 6.13188 28.5462C6.23761 34.6784 9.30369 40.0705 14.0085 43.4009C15.383 44.4053 16.1759 45.9912 16.1759 47.6828V50.1145H34.1495V47.2599C34.1495 45.6211 34.8896 44.0881 36.1583 43.0837C40.546 39.5418 43.4535 34.1498 43.4535 28.1233Z" fill="#F8B775"/>
<path d="M34.6784 49.3744V55.2422C34.6784 57.9911 32.4581 60.2642 29.6564 60.2642H27.4361C27.489 60.4228 27.489 60.5286 27.489 60.6872C27.489 61.903 26.4846 62.8546 25.3216 62.8546H24.1586C23.5771 62.8546 22.9956 62.5902 22.6255 62.2202C22.2026 61.7973 21.9912 61.2687 21.9912 60.6872C21.9912 60.5286 21.9912 60.4228 22.044 60.2642H19.8238C17.0749 60.2642 14.8018 58.044 14.8018 55.2422V49.3744H34.6784Z" fill="#1B55AA"/>
<path d="M33.6742 51.3832H16.1235V52.7576H33.6742V51.3832Z" fill="#4962AD"/>
<path d="M33.6742 54.1851H16.1235V55.5595H33.6742V54.1851Z" fill="#4962AD"/>
<path d="M30.9248 57.0396H19.1362V58.414H30.9248V57.0396Z" fill="#4962AD"/>
<path d="M25.6909 20.0353V40.1762C25.6909 40.1762 28.4398 42.0793 30.0257 40.1762C31.6116 38.2731 31.083 36.6344 31.083 36.6344C31.083 36.6344 34.572 36.1586 34.572 33.0925C34.572 31.2952 33.9376 30.6608 33.9376 30.6608C33.9376 30.6608 34.8892 29.1278 34.572 27.1718C33.8319 24.3172 30.9773 24.6344 30.9773 24.6344C30.9773 24.6344 31.9288 17.5507 25.6909 20.0353Z" fill="#F4A24B"/>
<path d="M23.0483 20.0353V40.1762C23.0483 40.1762 20.2994 42.0793 18.7135 40.1762C17.1276 38.2731 17.6563 36.6344 17.6563 36.6344C17.6563 36.6344 14.1673 36.1586 14.1673 33.0925C14.1673 31.2952 14.8016 30.6608 14.8016 30.6608C14.8016 30.6608 13.8501 29.1278 14.1673 27.1718C14.9074 24.3172 17.762 24.6344 17.762 24.6344C17.762 24.6344 16.8104 17.5507 23.0483 20.0353Z" fill="#F4A24B"/>
<path d="M26.6426 13.7445C26.6426 13.7445 34.3606 13.6917 38.5369 20.4582" stroke="white" stroke-width="4" stroke-miterlimit="10"/>
</g>
<defs>
<clipPath id="clip0_130_5017">
<rect width="60" height="62.8546" fill="white"/>
</clipPath>
</defs>
</svg>
