<svg width="40" height="40" viewBox="0 0 40 40" fill="none" xmlns="http://www.w3.org/2000/svg">
<rect width="40" height="40" rx="20" fill="#101828"/>
<path d="M26.5002 12.11L21.5102 10.24C20.6802 9.93001 19.3202 9.93001 18.4902 10.24L13.5002 12.11C12.3502 12.54 11.4102 13.9 11.4102 15.12V22.55C11.4102 23.73 12.1902 25.28 13.1402 25.99L17.4402 29.2C18.8502 30.26 21.1702 30.26 22.5802 29.2L26.8802 25.99C27.8302 25.28 28.6102 23.73 28.6102 22.55V15.12C28.5902 13.9 27.6502 12.54 26.5002 12.11ZM19.9302 15.03C21.1102 15.03 22.0702 15.99 22.0702 17.17C22.0702 18.33 21.1602 19.26 20.0102 19.3H19.9902H19.9702C19.9502 19.3 19.9302 19.3 19.9102 19.3C18.7102 19.26 17.8102 18.33 17.8102 17.17C17.8002 15.99 18.7602 15.03 19.9302 15.03ZM22.1902 24.36C21.5802 24.76 20.7902 24.97 20.0002 24.97C19.2102 24.97 18.4102 24.77 17.8102 24.36C17.2402 23.98 16.9302 23.46 16.9202 22.89C16.9202 22.33 17.2402 21.79 17.8102 21.41C19.0202 20.61 20.9902 20.61 22.2002 21.41C22.7702 21.79 23.0902 22.31 23.0902 22.88C23.0802 23.44 22.7602 23.98 22.1902 24.36Z" fill="white"/>
</svg>
