<svg width="134" height="135" viewBox="0 0 134 135" fill="none" xmlns="http://www.w3.org/2000/svg">
<g clip-path="url(#clip0_103_5517)">
<path d="M67 134.974C104.003 134.974 134 104.977 134 67.9736C134 30.9706 104.003 0.973633 67 0.973633C29.9969 0.973633 0 30.9706 0 67.9736C0 104.977 29.9969 134.974 67 134.974Z" fill="#172852"/>
<path d="M53.9689 30.9162C61.8146 27.9815 70.6452 27.9748 78.6383 30.3869C89.0434 33.6163 97.8271 41.4687 102.417 51.3244C103.683 54.1317 104.896 57.0596 105.016 60.1818C99.1671 56.7916 92.7552 54.594 86.3299 52.5907C76.0521 48.8856 65.2919 46.3128 55.5635 41.2208C53.2989 39.8674 50.4112 38.4805 49.7948 35.6598C49.5469 33.221 52.1264 31.8609 53.9689 30.9162Z" fill="#FFD83D"/>
<path d="M30.2842 54.6345C32.5555 48.4705 36.2807 42.7487 41.3392 38.5076C42.6256 49.0869 47.128 59.3111 54.565 67.0027C63.4827 76.2688 76.1859 81.9571 89.1102 81.7427C94.2424 81.9035 99.2607 80.7176 104.266 79.7595C99.3411 97.5547 79.8374 109.367 61.7675 106.526C50.8599 105.132 40.7898 98.6736 34.7129 89.5549C27.8588 79.4781 26.1302 66.0982 30.2842 54.6345Z" fill="#FFD83D"/>
<path d="M86.3294 52.5903C92.7547 54.5936 99.1666 56.7912 105.016 60.1814L105.411 60.3891C105.954 64.4694 106.349 68.6301 105.625 72.7171C102.684 71.4709 100.299 69.28 97.8065 67.3437C93.0093 63.3505 88.1116 58.7811 86.3294 52.5903Z" fill="#FF6F03"/>
</g>
<defs>
<clipPath id="clip0_103_5517">
<rect width="134" height="134" fill="white" transform="translate(0 0.973633)"/>
</clipPath>
</defs>
</svg>
