<svg width="9" height="10" viewBox="0 0 9 10" fill="none" xmlns="http://www.w3.org/2000/svg">
<path fill-rule="evenodd" clip-rule="evenodd" d="M6.64016 2.85983C6.78661 3.00628 6.78661 3.24372 6.64016 3.39017L2.89017 7.14016C2.74372 7.28661 2.50628 7.28661 2.35983 7.14016C2.21339 6.99372 2.21339 6.75628 2.35983 6.60984L6.10984 2.85983C6.25628 2.71339 6.49372 2.71339 6.64016 2.85983Z" fill="#007C5B"/>
<path fill-rule="evenodd" clip-rule="evenodd" d="M2.625 2.75C2.83211 2.75 3 2.91789 3 3.125V6.5H6.375C6.58211 6.5 6.75 6.66789 6.75 6.875C6.75 7.08211 6.58211 7.25 6.375 7.25H2.625C2.41789 7.25 2.25 7.08211 2.25 6.875V3.125C2.25 2.91789 2.41789 2.75 2.625 2.75Z" fill="#007C5B"/>
</svg>
