<svg width="19" height="18" viewBox="0 0 19 18" fill="none" xmlns="http://www.w3.org/2000/svg">
<rect x="0.5" width="18" height="18" rx="9" fill="#DC3545" fill-opacity="0.2"/>
<path fill-rule="evenodd" clip-rule="evenodd" d="M11.6402 6.85983C11.7866 7.00628 11.7866 7.24372 11.6402 7.39017L7.89017 11.1402C7.74372 11.2866 7.50628 11.2866 7.35983 11.1402C7.21339 10.9937 7.21339 10.7563 7.35983 10.6098L11.1098 6.85983C11.2563 6.71339 11.4937 6.71339 11.6402 6.85983Z" fill="#DC3545"/>
<path fill-rule="evenodd" clip-rule="evenodd" d="M7.25 7.125C7.25 6.91789 7.41789 6.75 7.625 6.75H11.375C11.5821 6.75 11.75 6.91789 11.75 7.125V10.875C11.75 11.0821 11.5821 11.25 11.375 11.25C11.1679 11.25 11 11.0821 11 10.875V7.5H7.625C7.41789 7.5 7.25 7.33211 7.25 7.125Z" fill="#DC3545"/>
</svg>
