<svg width="50" height="54" viewBox="0 0 50 54" fill="none" xmlns="http://www.w3.org/2000/svg">
<g clip-path="url(#clip0_130_5070)">
<path d="M46.5553 6.82704C48.4579 6.82704 50.0003 5.29876 50.0003 3.41352C50.0003 1.52829 48.4579 0 46.5553 0C44.6527 0 43.1104 1.52829 43.1104 3.41352C43.1104 5.29876 44.6527 6.82704 46.5553 6.82704Z" fill="#717EBD"/>
<path d="M6.36364 54H28.8517C32.3445 54 35.2153 51.2028 35.2153 47.6944V15.3134C35.1675 11.8525 32.3445 9.00787 28.8517 9.00787H6.36364C2.82297 9.00787 0 11.8525 0 15.3134V47.6944C0 51.1554 2.82297 54 6.36364 54Z" fill="#C7CAE6"/>
<path d="M18.4211 40.7726C22.8605 40.7726 26.4594 37.2066 26.4594 32.8077C26.4594 28.4088 22.8605 24.8428 18.4211 24.8428C13.9817 24.8428 10.3828 28.4088 10.3828 32.8077C10.3828 37.2066 13.9817 40.7726 18.4211 40.7726Z" fill="#1B55AA"/>
<path d="M24.5934 30.1528C26.496 30.1528 28.0384 28.6245 28.0384 26.7393C28.0384 24.854 26.496 23.3257 24.5934 23.3257C22.6908 23.3257 21.1484 24.854 21.1484 26.7393C21.1484 28.6245 22.6908 30.1528 24.5934 30.1528Z" fill="white"/>
</g>
<defs>
<clipPath id="clip0_130_5070">
<rect width="50" height="54" fill="white"/>
</clipPath>
</defs>
</svg>
