<svg width="108" height="97" viewBox="0 0 108 97" fill="none" xmlns="http://www.w3.org/2000/svg">
<g clip-path="url(#clip0_1695_3126)">
<path d="M54.2198 97C80.8164 97 102.377 75.2858 102.377 48.5C102.377 21.7142 80.8164 0 54.2198 0C27.6233 0 6.0625 21.7142 6.0625 48.5C6.0625 75.2858 27.6233 97 54.2198 97Z" fill="#EAEEF4"/>
<path d="M54.2193 85.4524C74.0252 85.4524 90.0811 69.2823 90.0811 49.3354C90.0811 29.3885 74.0252 13.2184 54.2193 13.2184C34.4133 13.2184 18.3574 29.3885 18.3574 49.3354C18.3574 69.2823 34.4133 85.4524 54.2193 85.4524Z" fill="#11499F"/>
<path d="M49.632 75.1333C66.0965 75.1333 79.4437 61.6912 79.4437 45.1095C79.4437 28.5278 66.0965 15.0857 49.632 15.0857C33.1675 15.0857 19.8203 28.5278 19.8203 45.1095C19.8203 61.6912 33.1675 75.1333 49.632 75.1333Z" fill="#4962AD"/>
<path d="M45.8277 66.0918L31.7269 49.2372C30.5071 47.763 30.7023 45.6009 32.1172 44.3724C33.581 43.1439 35.7278 43.3405 36.9476 44.7655L47.2426 57.0502L75.7857 39.1146C77.3959 38.1318 79.4939 38.6232 80.4697 40.1956C81.4456 41.8172 80.9576 43.9302 79.3963 44.9129L45.8277 66.0918Z" fill="white"/>
<path d="M79.4932 44.9621C79.4444 45.0112 79.4444 45.0112 79.3956 45.0112L45.827 66.0917L31.7262 49.2371C31.5311 49.0406 31.3847 48.7949 31.2871 48.5492C32.7021 47.6156 34.6537 47.8613 35.7759 49.188L46.071 61.4727L74.6141 43.537C76.2242 42.5543 78.3222 43.0457 79.2981 44.6181C79.3469 44.7655 79.4444 44.8638 79.4932 44.9621Z" fill="#EAEEF4"/>
<path d="M82.4221 2.06384L87.3989 3.68542L83.1052 14.3485L80.1777 13.4149L82.4221 2.06384Z" fill="#717EBD"/>
<path d="M107.499 44.1266L106.718 49.3353L95.5938 46.7309L96.0329 43.6843L107.499 44.1266Z" fill="#717EBD"/>
<path d="M100.67 21.6702L102.622 26.5349L91.7413 30.0729L90.5703 27.2229L100.67 21.6702Z" fill="#11499F"/>
<path d="M25.5783 96.8034L20.6016 95.231L24.8952 84.5679L27.8227 85.5015L25.5783 96.8034Z" fill="#717EBD"/>
<path d="M0.5 54.7406L1.28067 49.5811L12.4052 52.1363L11.966 55.232L0.5 54.7406Z" fill="#717EBD"/>
<path d="M7.33057 77.1971L5.37891 72.3324L16.2594 68.8435L17.4304 71.6936L7.33057 77.1971Z" fill="#11499F"/>
</g>
<defs>
<clipPath id="clip0_1695_3126">
<rect width="107" height="97" fill="white" transform="translate(0.5)"/>
</clipPath>
</defs>
</svg>
