<svg width="60" height="56" viewBox="0 0 60 56" fill="none" xmlns="http://www.w3.org/2000/svg">
<g clip-path="url(#clip0_130_5029)">
<path d="M33.4652 47.3245H18.9038V54.1228H33.4652V47.3245Z" fill="#15437A"/>
<path d="M2.23684 48.4649H49.7807C51.0088 48.4649 52.0175 47.4561 52.0175 46.2281V12.7193C52.0175 11.4912 51.0088 10.4825 49.7807 10.4825H2.23684C1.00877 10.4386 0 11.4474 0 12.7193V46.2281C0 47.4561 1.00877 48.4649 2.23684 48.4649Z" fill="#1B55AA"/>
<path d="M56.842 6.31579C58.586 6.31579 59.9999 4.90195 59.9999 3.15789C59.9999 1.41384 58.586 0 56.842 0C55.0979 0 53.6841 1.41384 53.6841 3.15789C53.6841 4.90195 55.0979 6.31579 56.842 6.31579Z" fill="#717EBD"/>
<path d="M4.34186 44.9562H47.6752C49.1664 44.9562 50.3945 43.7281 50.3945 42.2369V14.2106C50.3945 12.7193 49.1664 11.4913 47.6752 11.4913H4.34186C2.85063 11.4913 1.62256 12.7193 1.62256 14.2106V42.2369C1.62256 43.7281 2.85063 44.9562 4.34186 44.9562Z" fill="#717EBD"/>
<path d="M15.263 40.9649C15.1314 40.9649 14.9998 40.921 14.8683 40.8333C14.6051 40.614 14.5613 40.2193 14.7805 39.9561L16.7981 37.3684L17.2805 33.0702L22.5437 27.1491L24.649 28.5088C25.3507 28.9474 26.1841 29.0789 26.9735 28.8158L28.7279 28.2456C29.0349 28.1579 29.4297 28.3333 29.5174 28.6403C29.6051 28.9912 29.4297 29.3421 29.1227 29.4298L27.3683 30C26.2279 30.3947 24.9998 30.2193 23.9911 29.5614L22.8069 28.7719L18.5086 33.5965L18.0262 37.8509L15.7893 40.7456C15.6577 40.8772 15.4823 40.9649 15.263 40.9649Z" fill="#FDE4CA"/>
<path d="M25.8777 27.5877C27.0404 27.5877 27.983 26.704 27.983 25.614C27.983 24.524 27.0404 23.6403 25.8777 23.6403C24.715 23.6403 23.7725 24.524 23.7725 25.614C23.7725 26.704 24.715 27.5877 25.8777 27.5877Z" fill="#FDE4CA"/>
<path d="M29.7366 24.5176C30.8993 24.5176 31.8419 23.6339 31.8419 22.5439C31.8419 21.4538 30.8993 20.5702 29.7366 20.5702C28.5739 20.5702 27.6313 21.4538 27.6313 22.5439C27.6313 23.6339 28.5739 24.5176 29.7366 24.5176Z" fill="#FDE4CA"/>
<path d="M37.2368 20.921C35.7017 20.921 34.4736 19.7807 34.4736 18.3333C34.4736 16.886 35.7017 15.7456 37.2368 15.7456C38.7719 15.7456 39.9999 16.886 39.9999 18.3333C39.9999 19.7368 38.7719 20.921 37.2368 20.921ZM37.2368 16.9737C36.4035 16.9737 35.7456 17.5877 35.7456 18.2895C35.7456 18.9912 36.4035 19.6053 37.2368 19.6053C38.0701 19.6053 38.728 18.9912 38.728 18.2895C38.728 17.5877 38.0701 16.9737 37.2368 16.9737Z" fill="#FDE4CA"/>
<path d="M22.6758 21.1842C21.1407 21.1842 19.9126 20.0439 19.9126 18.5965C19.9126 17.1491 21.1407 16.0088 22.6758 16.0088C24.2108 16.0088 25.4389 17.1491 25.4389 18.5965C25.4389 20.0439 24.2108 21.1842 22.6758 21.1842ZM22.6758 17.2807C21.8424 17.2807 21.1845 17.8948 21.1845 18.5965C21.1845 19.2983 21.8424 19.9123 22.6758 19.9123C23.5091 19.9123 24.167 19.2983 24.167 18.5965C24.167 17.8948 23.5091 17.2807 22.6758 17.2807Z" fill="#FDE4CA"/>
<path d="M15.0879 29.9561C13.5528 29.9561 12.3247 28.8158 12.3247 27.3684C12.3247 25.9211 13.5528 24.7807 15.0879 24.7807C15.7019 24.7807 16.3159 25 16.8423 25.3509C17.5001 25.8333 17.851 26.5789 17.851 27.3684C17.851 28.8158 16.5791 29.9561 15.0879 29.9561ZM15.0879 26.0526C14.2545 26.0526 13.5966 26.6667 13.5966 27.3684C13.5966 28.114 14.2545 28.6842 15.0879 28.6842C15.9212 28.6842 16.5791 28.0702 16.5791 27.3684C16.5791 26.9737 16.4037 26.6228 16.0528 26.3596C15.7896 26.1842 15.4387 26.0526 15.0879 26.0526Z" fill="#FDE4CA"/>
<path d="M20.0002 39.0789C19.9124 39.0789 19.7809 39.035 19.6931 38.9912C19.3861 38.8157 19.2984 38.421 19.43 38.114L20.5703 36.0087C20.7019 35.7894 20.6142 35.4824 20.3949 35.3508L17.7195 33.5526C17.4124 33.3771 17.3686 32.9824 17.544 32.6754C17.7195 32.3684 18.1142 32.3245 18.4212 32.5L21.0966 34.2982C21.8423 34.8245 22.1054 35.8333 21.6668 36.6228L20.5265 38.728C20.4388 38.9912 20.2195 39.0789 20.0002 39.0789Z" fill="#FDE4CA"/>
<path d="M39.5179 39.0789C39.2547 39.0789 38.9916 38.9035 38.9039 38.5965L37.9828 35.2193L33.9916 33.5088L31.053 26.3596C30.9214 26.0526 31.053 25.6579 31.4039 25.5263C31.7109 25.3947 32.1056 25.5263 32.2372 25.8772L35.0004 32.5438L39.0793 34.2982L40.1758 38.2456C40.2635 38.5965 40.0881 38.9474 39.7372 39.0351C39.6495 39.0789 39.5618 39.0789 39.5179 39.0789Z" fill="#FDE4CA"/>
<path d="M33.0707 41.4035C32.983 41.4035 32.8953 41.4035 32.8075 41.3597C32.5005 41.2281 32.3689 40.8334 32.5005 40.5263L34.2549 36.8421L33.8602 33.2018C33.8163 32.8509 34.0795 32.5439 34.4303 32.5C34.7812 32.4562 35.0882 32.7193 35.1321 33.0702L35.5707 37.0614L33.6847 41.0965C33.5531 41.272 33.3338 41.4035 33.0707 41.4035Z" fill="#FDE4CA"/>
<path d="M37.1934 31.0965C37.1057 31.0965 37.0179 31.0965 36.9302 31.0526C36.7548 30.9649 32.7636 29.2544 31.3162 27.4123C31.0969 27.1491 31.1408 26.7544 31.4039 26.5351C31.6671 26.3158 32.0618 26.3596 32.2811 26.6228C33.2899 27.9386 36.3162 29.3859 37.4127 29.8684C37.7197 30 37.8951 30.3947 37.7636 30.7017C37.6758 30.9649 37.4565 31.0965 37.1934 31.0965Z" fill="#FDE4CA"/>
<path d="M33.0705 21.4912C32.8512 21.4912 32.6758 21.4035 32.5442 21.228C32.3249 20.9649 32.4126 20.5701 32.6758 20.3508L34.8688 18.8158C35.1319 18.5965 35.5267 18.6842 35.746 18.9473C35.9653 19.2105 35.8775 19.6052 35.6144 19.8245L33.4214 21.3596C33.3337 21.4473 33.2021 21.4912 33.0705 21.4912Z" fill="#FDE4CA"/>
<path d="M16.4476 26.4912C16.316 26.4912 16.1406 26.4474 16.0528 26.3596C15.7897 26.1403 15.7458 25.7456 15.9651 25.4824L20.8774 19.693C21.0967 19.4298 21.4914 19.386 21.7546 19.6053C22.0177 19.8246 22.0616 20.2193 21.8423 20.4824L16.93 26.2719C16.7985 26.4474 16.623 26.4912 16.4476 26.4912Z" fill="#FDE4CA"/>
<path d="M26.8421 21.4912C26.7544 21.4912 26.6228 21.4473 26.5351 21.4035L24.2106 20.0877C23.9036 19.9123 23.8158 19.5175 23.9913 19.2105C24.1667 18.9035 24.5614 18.8158 24.8685 18.9912L27.193 20.307C27.5 20.4824 27.5878 20.8772 27.4123 21.1842C27.2807 21.4035 27.0614 21.4912 26.8421 21.4912Z" fill="#FDE4CA"/>
<path d="M4.60549 16.9737H3.11426V27.5439H4.60549V16.9737Z" fill="white"/>
<path d="M36.7984 54.1228H15.3511V55.307H36.7984V54.1228Z" fill="#15437A"/>
</g>
<defs>
<clipPath id="clip0_130_5029">
<rect width="60" height="55.307" fill="white"/>
</clipPath>
</defs>
</svg>
