<svg width="60" height="61" viewBox="0 0 60 61" fill="none" xmlns="http://www.w3.org/2000/svg">
<g clip-path="url(#clip0_132_5076)">
<path d="M59.5986 46.2155L49.8242 59.9999C49.3731 60.6516 48.5209 60.8521 47.7691 60.5012L0.901873 37.2932C-0.35126 36.6416 -0.251009 34.837 1.05225 34.3358L11.9796 30.2756L47.8192 47.9699C48.5209 48.3207 49.4232 48.1202 49.8743 47.4686L54.4357 41.0526L58.7465 42.9072C59.9495 43.5087 60.4006 45.0626 59.5986 46.2155Z" fill="#1B55AA"/>
<path d="M54.3857 41.1027L49.8243 47.5188C49.3732 48.1704 48.5211 48.3709 47.7692 48.02L11.9797 30.3258L20.5512 27.1178C21.1025 26.9173 21.6539 26.9173 22.1552 27.1679L54.3857 41.1027Z" fill="#4962AD"/>
<path d="M59.5986 33.7343L54.3856 41.1027L22.155 27.1679C21.6538 26.9674 21.0522 26.9173 20.551 27.1178L11.9796 30.2757L0.901873 24.812C-0.35126 24.1604 -0.251009 22.3559 1.05225 21.8546L12.3304 17.6942L47.8192 35.2381C48.5209 35.589 49.4232 35.3884 49.8743 34.7368L54.2352 28.5714L58.6964 30.4762C59.9495 31.0275 60.4006 32.5814 59.5986 33.7343Z" fill="#717EBD"/>
<path d="M54.2361 28.5213L49.8752 34.6867C49.424 35.3383 48.5719 35.5388 47.82 35.188L12.3313 17.6441L20.5518 14.6366C21.1032 14.4361 21.6546 14.4361 22.1559 14.6867L54.2361 28.5213Z" fill="#FACD9D"/>
<path d="M59.5986 20.9523L54.2352 28.5213L22.155 14.6867C21.6538 14.4862 21.0522 14.436 20.551 14.6365L12.3304 17.6942L0.901873 12.03C-0.35126 11.3784 -0.251009 9.57389 1.05225 9.07264L20.551 1.85459C21.1024 1.65409 21.6538 1.65409 22.155 1.90472L58.6964 17.6441C59.9495 18.1954 60.4006 19.7995 59.5986 20.9523Z" fill="#FDE4CA"/>
<path d="M50.6266 7.21804C52.6198 7.21804 54.2356 5.60223 54.2356 3.60902C54.2356 1.61581 52.6198 0 50.6266 0C48.6334 0 47.0176 1.61581 47.0176 3.60902C47.0176 5.60223 48.6334 7.21804 50.6266 7.21804Z" fill="#717EBD"/>
</g>
<defs>
<clipPath id="clip0_132_5076">
<rect width="60" height="60.6516" fill="white"/>
</clipPath>
</defs>
</svg>
