<svg width="60" height="61" viewBox="0 0 60 61" fill="none" xmlns="http://www.w3.org/2000/svg">
<g clip-path="url(#clip0_130_5063)">
<path d="M56.3453 7.30965C58.3638 7.30965 60.0001 5.67333 60.0001 3.65482C60.0001 1.63632 58.3638 0 56.3453 0C54.3267 0 52.6904 1.63632 52.6904 3.65482C52.6904 5.67333 54.3267 7.30965 56.3453 7.30965Z" fill="#717EBD"/>
<path d="M55.0763 34.7716C55.0763 41.6752 52.3352 47.9696 47.8682 52.5889C47.3098 52.2843 46.7007 52.0813 46.0408 51.8782C44.0103 51.3198 42.0306 50.5584 40.0509 49.8985C38.1727 49.2386 36.4468 46.9036 36.3961 44.9747C36.3961 44.6701 36.4976 44.4163 36.7007 44.2132C38.0712 42.8935 38.6296 41.2183 39.0864 39.3909C39.391 38.2234 40.254 37.2589 40.5078 35.9899C40.7108 34.8731 40.9138 33.8072 40.1017 32.8427C39.8479 32.5381 39.8986 32.132 39.8986 31.7259C39.8986 30.7107 39.8986 29.6955 39.8986 28.6803C39.8986 24.4671 38.2743 21.2183 34.3656 19.3401C34.2133 19.2386 34.0611 19.1371 34.1118 18.8833H28.4773C28.4265 19.5432 27.7666 19.4924 27.4113 19.6447C23.858 21.3706 21.9291 24.2132 21.8276 28.1726C21.7768 29.2894 21.8276 30.4061 21.8276 31.4721C21.8276 31.8275 21.8783 32.3351 21.6753 32.5889C20.2539 34.7716 21.2184 36.7006 22.3352 38.6295C22.5382 38.9848 22.6905 39.2894 22.7413 39.6955C22.9443 41.3198 23.655 42.7412 24.7717 43.9087C25.2286 44.3655 25.3301 44.8224 25.1778 45.4315C24.5179 47.665 23.4519 49.4417 20.9646 50.1016C19.0357 50.6092 17.1575 51.4214 15.2286 51.9797C14.0611 52.3351 13.0966 52.8427 12.3352 53.5026C7.25902 48.8325 4.11182 42.132 4.11182 34.7209C4.11182 20.6092 15.5331 9.18787 29.6448 9.18787C43.655 9.18787 55.0763 20.6599 55.0763 34.7716Z" fill="#C7CAE6"/>
<path d="M47.8684 52.5888C43.2491 57.3604 36.7517 60.3553 29.5435 60.3553C22.843 60.3553 16.7517 57.7665 12.2339 53.604C12.9953 52.9441 13.9598 52.4365 15.1273 52.0812C17.0562 51.5228 18.9344 50.7106 20.8633 50.203C23.3506 49.5939 24.4166 47.8172 25.0765 45.533C25.2796 44.9238 25.178 44.467 24.6704 44.0101C23.5029 42.8426 22.843 41.4213 22.64 39.7969C22.5892 39.3908 22.4369 39.0863 22.2339 38.7309C21.1679 36.8528 20.1527 34.9238 21.574 32.6903C21.777 32.3858 21.7263 31.9289 21.7263 31.5736C21.7263 30.4568 21.7263 29.3401 21.7263 28.2741C21.8278 24.2639 23.7567 21.4721 27.31 19.7462C27.7161 19.5431 28.3253 19.6446 28.376 18.9847H33.8583C33.8075 19.1878 33.9598 19.3401 34.1121 19.4416C38.0207 21.3198 39.6451 24.5685 39.6451 28.7817C39.6451 29.7969 39.6451 30.8122 39.6451 31.8274C39.6451 32.1827 39.5943 32.6396 39.8481 32.9441C40.711 33.9086 40.4572 34.9746 40.2542 36.0913C40.0004 37.3604 39.0867 38.3248 38.8329 39.4924C38.376 41.3198 37.8176 42.9949 36.4471 44.3147C36.244 44.5177 36.1425 44.7715 36.1425 45.0761C36.1933 47.005 37.9699 49.3401 39.7973 50C41.777 50.7106 43.7567 51.4213 45.7872 51.9797C46.7009 52.0304 47.31 52.2842 47.8684 52.5888Z" fill="#1B55AA"/>
<path d="M12.8934 57.5127H5.02538C2.2335 57.5127 0 55.2284 0 52.4873V44.6193C0 41.8274 2.28426 39.5939 5.02538 39.5939H12.8426C15.6345 39.5939 17.868 41.8781 17.868 44.6193V52.4365C17.9188 55.2792 15.6853 57.5127 12.8934 57.5127Z" fill="#F8B775"/>
<path d="M8.93435 52.8427C11.3173 52.8427 13.2491 50.9109 13.2491 48.528C13.2491 46.145 11.3173 44.2133 8.93435 44.2133C6.5514 44.2133 4.61963 46.145 4.61963 48.528C4.61963 50.9109 6.5514 52.8427 8.93435 52.8427Z" fill="#F4A24B"/>
<path d="M8.98486 31.3705C8.98486 31.3705 12.0813 19.137 20.2539 16.4974" stroke="white" stroke-width="4" stroke-miterlimit="10"/>
</g>
<defs>
<clipPath id="clip0_130_5063">
<rect width="60" height="60.3046" fill="white"/>
</clipPath>
</defs>
</svg>
